<mxfile host="Electron" agent="Mozilla/5.0 (Macintosh; Intel Mac OS X 10_15_7) AppleWebKit/537.36 (KHTML, like Gecko) draw.io/24.7.5 Chrome/126.0.6478.183 Electron/31.3.0 Safari/537.36" version="24.7.5">
  <diagram id="R2lEEEUBdFMjLlhIrx00" name="Page-1">
    <mxGraphModel dx="1972" dy="1782" grid="1" gridSize="10" guides="1" tooltips="1" connect="1" arrows="1" fold="1" page="1" pageScale="1" pageWidth="850" pageHeight="1100" math="0" shadow="0" extFonts="Permanent Marker^https://fonts.googleapis.com/css?family=Permanent+Marker">
      <root>
        <mxCell id="0" />
        <mxCell id="1" parent="0" />
        <mxCell id="XW9KFBGHgBziSD6E--lj-1" value="Member" style="rounded=0;whiteSpace=wrap;html=1;" parent="1" vertex="1">
          <mxGeometry x="250" y="760" width="120" height="60" as="geometry" />
        </mxCell>
        <mxCell id="XW9KFBGHgBziSD6E--lj-2" value="&lt;u&gt;&lt;b&gt;memberId&lt;/b&gt;&lt;/u&gt;" style="ellipse;whiteSpace=wrap;html=1;" parent="1" vertex="1">
          <mxGeometry x="130" y="700" width="90" height="50" as="geometry" />
        </mxCell>
        <mxCell id="XW9KFBGHgBziSD6E--lj-3" value="memberType" style="ellipse;whiteSpace=wrap;html=1;" parent="1" vertex="1">
          <mxGeometry x="240" y="650" width="90" height="50" as="geometry" />
        </mxCell>
        <mxCell id="XW9KFBGHgBziSD6E--lj-7" value="" style="endArrow=none;html=1;rounded=0;exitX=0.5;exitY=0;exitDx=0;exitDy=0;entryX=1;entryY=0.5;entryDx=0;entryDy=0;" parent="1" source="XW9KFBGHgBziSD6E--lj-1" target="XW9KFBGHgBziSD6E--lj-2" edge="1">
          <mxGeometry width="50" height="50" relative="1" as="geometry">
            <mxPoint x="430" y="890" as="sourcePoint" />
            <mxPoint x="480" y="840" as="targetPoint" />
          </mxGeometry>
        </mxCell>
        <mxCell id="XW9KFBGHgBziSD6E--lj-8" value="" style="endArrow=none;html=1;rounded=0;exitX=0.5;exitY=0;exitDx=0;exitDy=0;entryX=0.5;entryY=1;entryDx=0;entryDy=0;" parent="1" source="XW9KFBGHgBziSD6E--lj-1" target="XW9KFBGHgBziSD6E--lj-3" edge="1">
          <mxGeometry width="50" height="50" relative="1" as="geometry">
            <mxPoint x="320" y="770" as="sourcePoint" />
            <mxPoint x="260" y="735" as="targetPoint" />
          </mxGeometry>
        </mxCell>
        <mxCell id="XW9KFBGHgBziSD6E--lj-9" value="Resource" style="whiteSpace=wrap;html=1;" parent="1" vertex="1">
          <mxGeometry x="250" y="1040" width="120" height="60" as="geometry" />
        </mxCell>
        <mxCell id="XW9KFBGHgBziSD6E--lj-10" value="Borrow" style="rhombus;whiteSpace=wrap;html=1;" parent="1" vertex="1">
          <mxGeometry x="240" y="900" width="130" height="60" as="geometry" />
        </mxCell>
        <mxCell id="XW9KFBGHgBziSD6E--lj-13" value="" style="endArrow=none;html=1;rounded=0;entryX=0.442;entryY=0.933;entryDx=0;entryDy=0;entryPerimeter=0;exitX=0.408;exitY=-0.017;exitDx=0;exitDy=0;exitPerimeter=0;" parent="1" edge="1">
          <mxGeometry width="50" height="50" relative="1" as="geometry">
            <mxPoint x="304.96000000000004" y="1038.98" as="sourcePoint" />
            <mxPoint x="305" y="960" as="targetPoint" />
            <Array as="points">
              <mxPoint x="305" y="990" />
            </Array>
          </mxGeometry>
        </mxCell>
        <mxCell id="XW9KFBGHgBziSD6E--lj-18" value="" style="endArrow=none;html=1;rounded=0;entryX=0.442;entryY=0.933;entryDx=0;entryDy=0;entryPerimeter=0;" parent="1" edge="1">
          <mxGeometry width="50" height="50" relative="1" as="geometry">
            <mxPoint x="304.29" y="900" as="sourcePoint" />
            <mxPoint x="304.29" y="820" as="targetPoint" />
          </mxGeometry>
        </mxCell>
        <mxCell id="XW9KFBGHgBziSD6E--lj-20" value="&lt;u&gt;&lt;b&gt;resourceId&lt;/b&gt;&lt;/u&gt;" style="ellipse;whiteSpace=wrap;html=1;" parent="1" vertex="1">
          <mxGeometry x="90" y="1100" width="90" height="50" as="geometry" />
        </mxCell>
        <mxCell id="XW9KFBGHgBziSD6E--lj-21" value="resourceType" style="ellipse;whiteSpace=wrap;html=1;" parent="1" vertex="1">
          <mxGeometry x="145" y="1180" width="90" height="50" as="geometry" />
        </mxCell>
        <mxCell id="XW9KFBGHgBziSD6E--lj-22" value="" style="endArrow=none;html=1;rounded=0;entryX=1;entryY=0.5;entryDx=0;entryDy=0;" parent="1" target="XW9KFBGHgBziSD6E--lj-20" edge="1">
          <mxGeometry width="50" height="50" relative="1" as="geometry">
            <mxPoint x="310" y="1100" as="sourcePoint" />
            <mxPoint x="230" y="735" as="targetPoint" />
          </mxGeometry>
        </mxCell>
        <mxCell id="XW9KFBGHgBziSD6E--lj-23" value="" style="endArrow=none;html=1;rounded=0;entryX=0.5;entryY=0;entryDx=0;entryDy=0;exitX=0.5;exitY=1;exitDx=0;exitDy=0;" parent="1" source="XW9KFBGHgBziSD6E--lj-9" target="XW9KFBGHgBziSD6E--lj-21" edge="1">
          <mxGeometry width="50" height="50" relative="1" as="geometry">
            <mxPoint x="320" y="1110" as="sourcePoint" />
            <mxPoint x="230" y="1155" as="targetPoint" />
          </mxGeometry>
        </mxCell>
        <mxCell id="XW9KFBGHgBziSD6E--lj-26" value="Location" style="rounded=0;whiteSpace=wrap;html=1;" parent="1" vertex="1">
          <mxGeometry x="720" y="1040" width="120" height="60" as="geometry" />
        </mxCell>
        <mxCell id="XW9KFBGHgBziSD6E--lj-27" value="located in" style="rhombus;whiteSpace=wrap;html=1;" parent="1" vertex="1">
          <mxGeometry x="480" y="1040" width="130" height="60" as="geometry" />
        </mxCell>
        <mxCell id="XW9KFBGHgBziSD6E--lj-28" value="" style="endArrow=none;html=1;rounded=0;exitX=1;exitY=0.75;exitDx=0;exitDy=0;" parent="1" edge="1">
          <mxGeometry width="50" height="50" relative="1" as="geometry">
            <mxPoint x="370" y="1069.3700000000001" as="sourcePoint" />
            <mxPoint x="480" y="1070" as="targetPoint" />
          </mxGeometry>
        </mxCell>
        <mxCell id="XW9KFBGHgBziSD6E--lj-31" value="" style="endArrow=none;html=1;rounded=0;exitX=1;exitY=0.5;exitDx=0;exitDy=0;entryX=0;entryY=0.5;entryDx=0;entryDy=0;" parent="1" source="XW9KFBGHgBziSD6E--lj-27" target="XW9KFBGHgBziSD6E--lj-26" edge="1">
          <mxGeometry width="50" height="50" relative="1" as="geometry">
            <mxPoint x="600" y="1064" as="sourcePoint" />
            <mxPoint x="720" y="1064" as="targetPoint" />
          </mxGeometry>
        </mxCell>
        <mxCell id="XW9KFBGHgBziSD6E--lj-32" value="&lt;u&gt;&lt;b&gt;locationId&lt;/b&gt;&lt;/u&gt;" style="ellipse;whiteSpace=wrap;html=1;" parent="1" vertex="1">
          <mxGeometry x="830" y="1140" width="160" height="60" as="geometry" />
        </mxCell>
        <mxCell id="XW9KFBGHgBziSD6E--lj-34" value="sectionName" style="ellipse;whiteSpace=wrap;html=1;" parent="1" vertex="1">
          <mxGeometry x="700" y="1160" width="90" height="50" as="geometry" />
        </mxCell>
        <mxCell id="XW9KFBGHgBziSD6E--lj-35" value="locationId" style="ellipse;whiteSpace=wrap;html=1;" parent="1" vertex="1">
          <mxGeometry x="265" y="1180" width="90" height="50" as="geometry" />
        </mxCell>
        <mxCell id="XW9KFBGHgBziSD6E--lj-36" value="" style="endArrow=none;html=1;rounded=0;entryX=0.5;entryY=0;entryDx=0;entryDy=0;exitX=0.5;exitY=1;exitDx=0;exitDy=0;" parent="1" source="XW9KFBGHgBziSD6E--lj-9" target="XW9KFBGHgBziSD6E--lj-35" edge="1">
          <mxGeometry width="50" height="50" relative="1" as="geometry">
            <mxPoint x="320" y="1110" as="sourcePoint" />
            <mxPoint x="285" y="1190" as="targetPoint" />
          </mxGeometry>
        </mxCell>
        <mxCell id="XW9KFBGHgBziSD6E--lj-37" value="" style="endArrow=none;html=1;rounded=0;entryX=0.5;entryY=0;entryDx=0;entryDy=0;exitX=0.5;exitY=1;exitDx=0;exitDy=0;" parent="1" target="XW9KFBGHgBziSD6E--lj-32" edge="1">
          <mxGeometry width="50" height="50" relative="1" as="geometry">
            <mxPoint x="775" y="1100" as="sourcePoint" />
            <mxPoint x="850" y="1160" as="targetPoint" />
          </mxGeometry>
        </mxCell>
        <mxCell id="XW9KFBGHgBziSD6E--lj-40" value="" style="endArrow=none;html=1;rounded=0;entryX=0.5;entryY=0;entryDx=0;entryDy=0;exitX=0.5;exitY=1;exitDx=0;exitDy=0;" parent="1" source="XW9KFBGHgBziSD6E--lj-26" target="XW9KFBGHgBziSD6E--lj-34" edge="1">
          <mxGeometry width="50" height="50" relative="1" as="geometry">
            <mxPoint x="785" y="1110" as="sourcePoint" />
            <mxPoint x="920" y="1150" as="targetPoint" />
          </mxGeometry>
        </mxCell>
        <mxCell id="XW9KFBGHgBziSD6E--lj-41" value="Loan" style="rounded=0;whiteSpace=wrap;html=1;" parent="1" vertex="1">
          <mxGeometry x="720" y="760" width="120" height="60" as="geometry" />
        </mxCell>
        <mxCell id="XW9KFBGHgBziSD6E--lj-42" value="&lt;u&gt;&lt;b&gt;loanId&lt;span style=&quot;color: rgba(0, 0, 0, 0); font-family: monospace; font-size: 0px; text-align: start; text-wrap: nowrap;&quot;&gt;%3CmxGraphModel%3E%3Croot%3E%3CmxCell%20id%3D%220%22%2F%3E%3CmxCell%20id%3D%221%22%20parent%3D%220%22%2F%3E%3CmxCell%20id%3D%222%22%20value%3D%22memberType%22%20style%3D%22ellipse%3BwhiteSpace%3Dwrap%3Bhtml%3D1%3B%22%20vertex%3D%221%22%20parent%3D%221%22%3E%3CmxGeometry%20x%3D%22240%22%20y%3D%22650%22%20width%3D%2290%22%20height%3D%2250%22%20as%3D%22geometry%22%2F%3E%3C%2FmxCell%3E%3C%2Froot%3E%3C%2FmxGraphModel%3E&lt;/span&gt;&lt;/b&gt;&lt;/u&gt;" style="ellipse;whiteSpace=wrap;html=1;" parent="1" vertex="1">
          <mxGeometry x="990" y="650" width="90" height="50" as="geometry" />
        </mxCell>
        <mxCell id="XW9KFBGHgBziSD6E--lj-43" value="memberId" style="ellipse;whiteSpace=wrap;html=1;" parent="1" vertex="1">
          <mxGeometry x="840" y="600" width="90" height="50" as="geometry" />
        </mxCell>
        <mxCell id="XW9KFBGHgBziSD6E--lj-44" value="resourceId" style="ellipse;whiteSpace=wrap;html=1;" parent="1" vertex="1">
          <mxGeometry x="900" y="730" width="90" height="50" as="geometry" />
        </mxCell>
        <mxCell id="XW9KFBGHgBziSD6E--lj-45" value="loanDate" style="ellipse;whiteSpace=wrap;html=1;" parent="1" vertex="1">
          <mxGeometry x="735" y="640" width="90" height="50" as="geometry" />
        </mxCell>
        <mxCell id="XW9KFBGHgBziSD6E--lj-46" value="dueDate" style="ellipse;whiteSpace=wrap;html=1;dashed=1;dashPattern=8 8;" parent="1" vertex="1">
          <mxGeometry x="865" y="660" width="90" height="50" as="geometry" />
        </mxCell>
        <mxCell id="XW9KFBGHgBziSD6E--lj-47" value="returnDate" style="ellipse;whiteSpace=wrap;html=1;" parent="1" vertex="1">
          <mxGeometry x="625" y="650" width="90" height="50" as="geometry" />
        </mxCell>
        <mxCell id="XW9KFBGHgBziSD6E--lj-48" value="" style="endArrow=none;html=1;rounded=0;exitX=0.5;exitY=0;exitDx=0;exitDy=0;entryX=0.5;entryY=1;entryDx=0;entryDy=0;" parent="1" source="XW9KFBGHgBziSD6E--lj-41" target="XW9KFBGHgBziSD6E--lj-47" edge="1">
          <mxGeometry width="50" height="50" relative="1" as="geometry">
            <mxPoint x="685" y="780" as="sourcePoint" />
            <mxPoint x="660" y="720" as="targetPoint" />
          </mxGeometry>
        </mxCell>
        <mxCell id="XW9KFBGHgBziSD6E--lj-49" value="" style="endArrow=none;html=1;rounded=0;entryX=0.5;entryY=1;entryDx=0;entryDy=0;" parent="1" target="XW9KFBGHgBziSD6E--lj-45" edge="1">
          <mxGeometry width="50" height="50" relative="1" as="geometry">
            <mxPoint x="780" y="760" as="sourcePoint" />
            <mxPoint x="700" y="660" as="targetPoint" />
          </mxGeometry>
        </mxCell>
        <mxCell id="XW9KFBGHgBziSD6E--lj-50" value="" style="endArrow=none;html=1;rounded=0;entryX=0.5;entryY=1;entryDx=0;entryDy=0;exitX=0.5;exitY=0;exitDx=0;exitDy=0;" parent="1" source="XW9KFBGHgBziSD6E--lj-41" target="XW9KFBGHgBziSD6E--lj-43" edge="1">
          <mxGeometry width="50" height="50" relative="1" as="geometry">
            <mxPoint x="790" y="770" as="sourcePoint" />
            <mxPoint x="790" y="720" as="targetPoint" />
          </mxGeometry>
        </mxCell>
        <mxCell id="XW9KFBGHgBziSD6E--lj-51" value="" style="endArrow=none;html=1;rounded=0;entryX=0.5;entryY=1;entryDx=0;entryDy=0;exitX=0.5;exitY=0;exitDx=0;exitDy=0;" parent="1" source="XW9KFBGHgBziSD6E--lj-41" target="XW9KFBGHgBziSD6E--lj-46" edge="1">
          <mxGeometry width="50" height="50" relative="1" as="geometry">
            <mxPoint x="800" y="780" as="sourcePoint" />
            <mxPoint x="800" y="730" as="targetPoint" />
          </mxGeometry>
        </mxCell>
        <mxCell id="XW9KFBGHgBziSD6E--lj-52" value="" style="endArrow=none;html=1;rounded=0;entryX=0.5;entryY=1;entryDx=0;entryDy=0;exitX=0.5;exitY=0;exitDx=0;exitDy=0;" parent="1" source="XW9KFBGHgBziSD6E--lj-41" target="XW9KFBGHgBziSD6E--lj-42" edge="1">
          <mxGeometry width="50" height="50" relative="1" as="geometry">
            <mxPoint x="790" y="770" as="sourcePoint" />
            <mxPoint x="915" y="730" as="targetPoint" />
          </mxGeometry>
        </mxCell>
        <mxCell id="XW9KFBGHgBziSD6E--lj-53" value="" style="endArrow=none;html=1;rounded=0;entryX=0;entryY=0.5;entryDx=0;entryDy=0;exitX=0.5;exitY=0;exitDx=0;exitDy=0;" parent="1" source="XW9KFBGHgBziSD6E--lj-41" target="XW9KFBGHgBziSD6E--lj-44" edge="1">
          <mxGeometry width="50" height="50" relative="1" as="geometry">
            <mxPoint x="790" y="770" as="sourcePoint" />
            <mxPoint x="895" y="660" as="targetPoint" />
          </mxGeometry>
        </mxCell>
        <mxCell id="XW9KFBGHgBziSD6E--lj-54" value="has" style="rhombus;whiteSpace=wrap;html=1;" parent="1" vertex="1">
          <mxGeometry x="480" y="760" width="130" height="60" as="geometry" />
        </mxCell>
        <mxCell id="XW9KFBGHgBziSD6E--lj-55" value="" style="endArrow=none;html=1;rounded=0;exitX=1;exitY=0.75;exitDx=0;exitDy=0;" parent="1" edge="1">
          <mxGeometry width="50" height="50" relative="1" as="geometry">
            <mxPoint x="370" y="789.3700000000001" as="sourcePoint" />
            <mxPoint x="480" y="790" as="targetPoint" />
          </mxGeometry>
        </mxCell>
        <mxCell id="XW9KFBGHgBziSD6E--lj-57" value="" style="endArrow=none;html=1;rounded=0;entryX=0.078;entryY=0.594;entryDx=0;entryDy=0;entryPerimeter=0;" parent="1" edge="1">
          <mxGeometry width="50" height="50" relative="1" as="geometry">
            <mxPoint x="610" y="791" as="sourcePoint" />
            <mxPoint x="720" y="790.81" as="targetPoint" />
          </mxGeometry>
        </mxCell>
        <mxCell id="XW9KFBGHgBziSD6E--lj-60" value="N" style="text;html=1;align=center;verticalAlign=middle;resizable=0;points=[];autosize=1;strokeColor=none;fillColor=none;" parent="1" vertex="1">
          <mxGeometry x="300" y="980" width="30" height="30" as="geometry" />
        </mxCell>
        <mxCell id="XW9KFBGHgBziSD6E--lj-61" value="1" style="text;html=1;align=center;verticalAlign=middle;resizable=0;points=[];autosize=1;strokeColor=none;fillColor=none;" parent="1" vertex="1">
          <mxGeometry x="300" y="848" width="30" height="30" as="geometry" />
        </mxCell>
        <mxCell id="XW9KFBGHgBziSD6E--lj-62" value="1" style="text;html=1;align=center;verticalAlign=middle;resizable=0;points=[];autosize=1;strokeColor=none;fillColor=none;" parent="1" vertex="1">
          <mxGeometry x="655" y="1040" width="30" height="30" as="geometry" />
        </mxCell>
        <mxCell id="XW9KFBGHgBziSD6E--lj-63" value="N" style="text;html=1;align=center;verticalAlign=middle;resizable=0;points=[];autosize=1;strokeColor=none;fillColor=none;" parent="1" vertex="1">
          <mxGeometry x="410" y="1040" width="30" height="30" as="geometry" />
        </mxCell>
        <mxCell id="XW9KFBGHgBziSD6E--lj-64" value="N" style="text;html=1;align=center;verticalAlign=middle;resizable=0;points=[];autosize=1;strokeColor=none;fillColor=none;" parent="1" vertex="1">
          <mxGeometry x="645" y="768" width="30" height="30" as="geometry" />
        </mxCell>
        <mxCell id="XW9KFBGHgBziSD6E--lj-65" value="1" style="text;html=1;align=center;verticalAlign=middle;resizable=0;points=[];autosize=1;strokeColor=none;fillColor=none;" parent="1" vertex="1">
          <mxGeometry x="415" y="768" width="30" height="30" as="geometry" />
        </mxCell>
        <mxCell id="XW9KFBGHgBziSD6E--lj-67" value="" style="endArrow=none;html=1;rounded=0;entryX=0.5;entryY=0;entryDx=0;entryDy=0;exitX=0.5;exitY=1;exitDx=0;exitDy=0;" parent="1" source="XW9KFBGHgBziSD6E--lj-9" target="XW9KFBGHgBziSD6E--lj-225" edge="1">
          <mxGeometry width="50" height="50" relative="1" as="geometry">
            <mxPoint x="320" y="1110" as="sourcePoint" />
            <mxPoint x="400" y="1220" as="targetPoint" />
          </mxGeometry>
        </mxCell>
        <mxCell id="XW9KFBGHgBziSD6E--lj-69" value="Email" style="ellipse;whiteSpace=wrap;html=1;" parent="1" vertex="1">
          <mxGeometry x="140" y="630" width="90" height="50" as="geometry" />
        </mxCell>
        <mxCell id="XW9KFBGHgBziSD6E--lj-70" value="" style="endArrow=none;html=1;rounded=0;entryX=0.5;entryY=1;entryDx=0;entryDy=0;" parent="1" target="XW9KFBGHgBziSD6E--lj-69" edge="1">
          <mxGeometry width="50" height="50" relative="1" as="geometry">
            <mxPoint x="310" y="760" as="sourcePoint" />
            <mxPoint x="295" y="710" as="targetPoint" />
          </mxGeometry>
        </mxCell>
        <mxCell id="XW9KFBGHgBziSD6E--lj-71" value="Name" style="ellipse;whiteSpace=wrap;html=1;" parent="1" vertex="1">
          <mxGeometry x="340" y="620" width="90" height="50" as="geometry" />
        </mxCell>
        <mxCell id="XW9KFBGHgBziSD6E--lj-72" value="" style="endArrow=none;html=1;rounded=0;exitX=0.5;exitY=0;exitDx=0;exitDy=0;entryX=0.5;entryY=1;entryDx=0;entryDy=0;" parent="1" source="XW9KFBGHgBziSD6E--lj-1" target="XW9KFBGHgBziSD6E--lj-71" edge="1">
          <mxGeometry width="50" height="50" relative="1" as="geometry">
            <mxPoint x="320" y="770" as="sourcePoint" />
            <mxPoint x="295" y="710" as="targetPoint" />
          </mxGeometry>
        </mxCell>
        <mxCell id="XW9KFBGHgBziSD6E--lj-73" value="Reservation" style="rounded=0;whiteSpace=wrap;html=1;" parent="1" vertex="1">
          <mxGeometry x="-150" y="900" width="120" height="60" as="geometry" />
        </mxCell>
        <mxCell id="XW9KFBGHgBziSD6E--lj-74" value="reserved by" style="rhombus;whiteSpace=wrap;html=1;" parent="1" vertex="1">
          <mxGeometry x="50" y="900" width="130" height="60" as="geometry" />
        </mxCell>
        <mxCell id="XW9KFBGHgBziSD6E--lj-76" value="" style="endArrow=none;html=1;rounded=0;entryX=0;entryY=0.5;entryDx=0;entryDy=0;exitX=0.5;exitY=0;exitDx=0;exitDy=0;" parent="1" source="XW9KFBGHgBziSD6E--lj-74" target="XW9KFBGHgBziSD6E--lj-1" edge="1">
          <mxGeometry width="50" height="50" relative="1" as="geometry">
            <mxPoint x="230" y="1000" as="sourcePoint" />
            <mxPoint x="280" y="950" as="targetPoint" />
          </mxGeometry>
        </mxCell>
        <mxCell id="XW9KFBGHgBziSD6E--lj-77" value="" style="endArrow=none;html=1;rounded=0;entryX=0;entryY=0.5;entryDx=0;entryDy=0;exitX=0.5;exitY=1;exitDx=0;exitDy=0;" parent="1" source="XW9KFBGHgBziSD6E--lj-74" target="XW9KFBGHgBziSD6E--lj-9" edge="1">
          <mxGeometry width="50" height="50" relative="1" as="geometry">
            <mxPoint x="120" y="970" as="sourcePoint" />
            <mxPoint x="260" y="800" as="targetPoint" />
          </mxGeometry>
        </mxCell>
        <mxCell id="XW9KFBGHgBziSD6E--lj-78" value="" style="endArrow=none;html=1;rounded=0;entryX=0;entryY=0.5;entryDx=0;entryDy=0;exitX=1;exitY=0.5;exitDx=0;exitDy=0;" parent="1" source="XW9KFBGHgBziSD6E--lj-73" target="XW9KFBGHgBziSD6E--lj-74" edge="1">
          <mxGeometry width="50" height="50" relative="1" as="geometry">
            <mxPoint x="125" y="970" as="sourcePoint" />
            <mxPoint x="260" y="1080" as="targetPoint" />
          </mxGeometry>
        </mxCell>
        <mxCell id="XW9KFBGHgBziSD6E--lj-79" value="reservationId" style="ellipse;whiteSpace=wrap;html=1;fontStyle=5" parent="1" vertex="1">
          <mxGeometry x="-260" y="810" width="90" height="50" as="geometry" />
        </mxCell>
        <mxCell id="XW9KFBGHgBziSD6E--lj-80" value="memberId" style="ellipse;whiteSpace=wrap;html=1;" parent="1" vertex="1">
          <mxGeometry x="-150" y="798" width="90" height="50" as="geometry" />
        </mxCell>
        <mxCell id="XW9KFBGHgBziSD6E--lj-81" value="resouceId" style="ellipse;whiteSpace=wrap;html=1;" parent="1" vertex="1">
          <mxGeometry x="-140" y="1030" width="90" height="50" as="geometry" />
        </mxCell>
        <mxCell id="XW9KFBGHgBziSD6E--lj-83" value="reservationDate" style="ellipse;whiteSpace=wrap;html=1;" parent="1" vertex="1">
          <mxGeometry x="-80" y="740" width="90" height="50" as="geometry" />
        </mxCell>
        <mxCell id="XW9KFBGHgBziSD6E--lj-85" value="expirationDate" style="ellipse;whiteSpace=wrap;html=1;dashed=1;dashPattern=8 8;" parent="1" vertex="1">
          <mxGeometry x="-276" y="990" width="90" height="50" as="geometry" />
        </mxCell>
        <mxCell id="XW9KFBGHgBziSD6E--lj-90" value="" style="endArrow=none;html=1;rounded=0;exitX=0.5;exitY=0;exitDx=0;exitDy=0;entryX=0.5;entryY=1;entryDx=0;entryDy=0;" parent="1" source="XW9KFBGHgBziSD6E--lj-73" target="XW9KFBGHgBziSD6E--lj-83" edge="1">
          <mxGeometry width="50" height="50" relative="1" as="geometry">
            <mxPoint x="-90" y="888" as="sourcePoint" />
            <mxPoint x="-40" y="838" as="targetPoint" />
          </mxGeometry>
        </mxCell>
        <mxCell id="XW9KFBGHgBziSD6E--lj-91" value="" style="endArrow=none;html=1;rounded=0;entryX=0.5;entryY=1;entryDx=0;entryDy=0;exitX=0.5;exitY=0;exitDx=0;exitDy=0;" parent="1" source="XW9KFBGHgBziSD6E--lj-73" target="XW9KFBGHgBziSD6E--lj-80" edge="1">
          <mxGeometry width="50" height="50" relative="1" as="geometry">
            <mxPoint x="-90" y="890" as="sourcePoint" />
            <mxPoint x="-25" y="800" as="targetPoint" />
          </mxGeometry>
        </mxCell>
        <mxCell id="XW9KFBGHgBziSD6E--lj-93" value="" style="endArrow=none;html=1;rounded=0;entryX=0.5;entryY=1;entryDx=0;entryDy=0;exitX=0.5;exitY=0;exitDx=0;exitDy=0;" parent="1" source="XW9KFBGHgBziSD6E--lj-73" target="XW9KFBGHgBziSD6E--lj-79" edge="1">
          <mxGeometry width="50" height="50" relative="1" as="geometry">
            <mxPoint x="-80" y="910" as="sourcePoint" />
            <mxPoint x="-155" y="800" as="targetPoint" />
          </mxGeometry>
        </mxCell>
        <mxCell id="XW9KFBGHgBziSD6E--lj-95" value="" style="endArrow=none;html=1;rounded=0;entryX=0.5;entryY=1;entryDx=0;entryDy=0;exitX=0.5;exitY=0;exitDx=0;exitDy=0;" parent="1" source="XW9KFBGHgBziSD6E--lj-81" target="XW9KFBGHgBziSD6E--lj-73" edge="1">
          <mxGeometry width="50" height="50" relative="1" as="geometry">
            <mxPoint x="-170" y="1005" as="sourcePoint" />
            <mxPoint x="-80" y="970" as="targetPoint" />
          </mxGeometry>
        </mxCell>
        <mxCell id="XW9KFBGHgBziSD6E--lj-97" value="" style="endArrow=none;html=1;rounded=0;entryX=0.5;entryY=1;entryDx=0;entryDy=0;exitX=0.5;exitY=0;exitDx=0;exitDy=0;" parent="1" source="XW9KFBGHgBziSD6E--lj-85" target="XW9KFBGHgBziSD6E--lj-73" edge="1">
          <mxGeometry width="50" height="50" relative="1" as="geometry">
            <mxPoint x="-25" y="1080" as="sourcePoint" />
            <mxPoint x="-80" y="970" as="targetPoint" />
          </mxGeometry>
        </mxCell>
        <mxCell id="XW9KFBGHgBziSD6E--lj-101" value="1" style="text;html=1;align=center;verticalAlign=middle;resizable=0;points=[];autosize=1;strokeColor=none;fillColor=none;" parent="1" vertex="1">
          <mxGeometry x="160" y="820" width="30" height="30" as="geometry" />
        </mxCell>
        <mxCell id="XW9KFBGHgBziSD6E--lj-104" value="1" style="text;html=1;align=center;verticalAlign=middle;resizable=0;points=[];autosize=1;strokeColor=none;fillColor=none;" parent="1" vertex="1">
          <mxGeometry x="175" y="988" width="30" height="30" as="geometry" />
        </mxCell>
        <mxCell id="XW9KFBGHgBziSD6E--lj-105" value="N" style="text;html=1;align=center;verticalAlign=middle;resizable=0;points=[];autosize=1;strokeColor=none;fillColor=none;" parent="1" vertex="1">
          <mxGeometry y="900" width="30" height="30" as="geometry" />
        </mxCell>
        <mxCell id="XW9KFBGHgBziSD6E--lj-106" value="Member" style="shape=table;startSize=30;container=1;collapsible=1;childLayout=tableLayout;fixedRows=1;rowLines=0;fontStyle=1;align=center;resizeLast=1;html=1;" parent="1" vertex="1">
          <mxGeometry x="-220" y="290" width="200" height="220" as="geometry">
            <mxRectangle x="-220" y="150" width="80" height="30" as="alternateBounds" />
          </mxGeometry>
        </mxCell>
        <mxCell id="XW9KFBGHgBziSD6E--lj-107" value="" style="shape=tableRow;horizontal=0;startSize=0;swimlaneHead=0;swimlaneBody=0;fillColor=none;collapsible=0;dropTarget=0;points=[[0,0.5],[1,0.5]];portConstraint=eastwest;top=0;left=0;right=0;bottom=1;" parent="XW9KFBGHgBziSD6E--lj-106" vertex="1">
          <mxGeometry y="30" width="200" height="50" as="geometry" />
        </mxCell>
        <mxCell id="XW9KFBGHgBziSD6E--lj-108" value="&lt;div&gt;PK&lt;br&gt;FK&lt;/div&gt;" style="shape=partialRectangle;connectable=0;fillColor=none;top=0;left=0;bottom=0;right=0;fontStyle=1;overflow=hidden;whiteSpace=wrap;html=1;" parent="XW9KFBGHgBziSD6E--lj-107" vertex="1">
          <mxGeometry width="30" height="50" as="geometry">
            <mxRectangle width="30" height="50" as="alternateBounds" />
          </mxGeometry>
        </mxCell>
        <mxCell id="XW9KFBGHgBziSD6E--lj-109" value="memberId VARCHAR(100)" style="shape=partialRectangle;connectable=0;fillColor=none;top=0;left=0;bottom=0;right=0;align=left;spacingLeft=6;fontStyle=5;overflow=hidden;whiteSpace=wrap;html=1;" parent="XW9KFBGHgBziSD6E--lj-107" vertex="1">
          <mxGeometry x="30" width="170" height="50" as="geometry">
            <mxRectangle width="170" height="50" as="alternateBounds" />
          </mxGeometry>
        </mxCell>
        <mxCell id="XW9KFBGHgBziSD6E--lj-110" value="" style="shape=tableRow;horizontal=0;startSize=0;swimlaneHead=0;swimlaneBody=0;fillColor=none;collapsible=0;dropTarget=0;points=[[0,0.5],[1,0.5]];portConstraint=eastwest;top=0;left=0;right=0;bottom=0;" parent="XW9KFBGHgBziSD6E--lj-106" vertex="1">
          <mxGeometry y="80" width="200" height="30" as="geometry" />
        </mxCell>
        <mxCell id="XW9KFBGHgBziSD6E--lj-111" value="" style="shape=partialRectangle;connectable=0;fillColor=none;top=0;left=0;bottom=0;right=0;editable=1;overflow=hidden;whiteSpace=wrap;html=1;" parent="XW9KFBGHgBziSD6E--lj-110" vertex="1">
          <mxGeometry width="30" height="30" as="geometry">
            <mxRectangle width="30" height="30" as="alternateBounds" />
          </mxGeometry>
        </mxCell>
        <mxCell id="XW9KFBGHgBziSD6E--lj-112" value="Name VARCHAR(100)" style="shape=partialRectangle;connectable=0;fillColor=none;top=0;left=0;bottom=0;right=0;align=left;spacingLeft=6;overflow=hidden;whiteSpace=wrap;html=1;" parent="XW9KFBGHgBziSD6E--lj-110" vertex="1">
          <mxGeometry x="30" width="170" height="30" as="geometry">
            <mxRectangle width="170" height="30" as="alternateBounds" />
          </mxGeometry>
        </mxCell>
        <mxCell id="XW9KFBGHgBziSD6E--lj-113" value="" style="shape=tableRow;horizontal=0;startSize=0;swimlaneHead=0;swimlaneBody=0;fillColor=none;collapsible=0;dropTarget=0;points=[[0,0.5],[1,0.5]];portConstraint=eastwest;top=0;left=0;right=0;bottom=0;" parent="XW9KFBGHgBziSD6E--lj-106" vertex="1">
          <mxGeometry y="110" width="200" height="30" as="geometry" />
        </mxCell>
        <mxCell id="XW9KFBGHgBziSD6E--lj-114" value="" style="shape=partialRectangle;connectable=0;fillColor=none;top=0;left=0;bottom=0;right=0;editable=1;overflow=hidden;whiteSpace=wrap;html=1;" parent="XW9KFBGHgBziSD6E--lj-113" vertex="1">
          <mxGeometry width="30" height="30" as="geometry">
            <mxRectangle width="30" height="30" as="alternateBounds" />
          </mxGeometry>
        </mxCell>
        <mxCell id="XW9KFBGHgBziSD6E--lj-115" value="Email VARCHAR(100)" style="shape=partialRectangle;connectable=0;fillColor=none;top=0;left=0;bottom=0;right=0;align=left;spacingLeft=6;overflow=hidden;whiteSpace=wrap;html=1;" parent="XW9KFBGHgBziSD6E--lj-113" vertex="1">
          <mxGeometry x="30" width="170" height="30" as="geometry">
            <mxRectangle width="170" height="30" as="alternateBounds" />
          </mxGeometry>
        </mxCell>
        <mxCell id="XW9KFBGHgBziSD6E--lj-116" value="" style="shape=tableRow;horizontal=0;startSize=0;swimlaneHead=0;swimlaneBody=0;fillColor=none;collapsible=0;dropTarget=0;points=[[0,0.5],[1,0.5]];portConstraint=eastwest;top=0;left=0;right=0;bottom=0;" parent="XW9KFBGHgBziSD6E--lj-106" vertex="1">
          <mxGeometry y="140" width="200" height="30" as="geometry" />
        </mxCell>
        <mxCell id="XW9KFBGHgBziSD6E--lj-117" value="" style="shape=partialRectangle;connectable=0;fillColor=none;top=0;left=0;bottom=0;right=0;editable=1;overflow=hidden;whiteSpace=wrap;html=1;" parent="XW9KFBGHgBziSD6E--lj-116" vertex="1">
          <mxGeometry width="30" height="30" as="geometry">
            <mxRectangle width="30" height="30" as="alternateBounds" />
          </mxGeometry>
        </mxCell>
        <mxCell id="XW9KFBGHgBziSD6E--lj-118" value="DOB DATE" style="shape=partialRectangle;connectable=0;fillColor=none;top=0;left=0;bottom=0;right=0;align=left;spacingLeft=6;overflow=hidden;whiteSpace=wrap;html=1;" parent="XW9KFBGHgBziSD6E--lj-116" vertex="1">
          <mxGeometry x="30" width="170" height="30" as="geometry">
            <mxRectangle width="170" height="30" as="alternateBounds" />
          </mxGeometry>
        </mxCell>
        <mxCell id="XW9KFBGHgBziSD6E--lj-161" value="" style="shape=tableRow;horizontal=0;startSize=0;swimlaneHead=0;swimlaneBody=0;fillColor=none;collapsible=0;dropTarget=0;points=[[0,0.5],[1,0.5]];portConstraint=eastwest;top=0;left=0;right=0;bottom=0;" parent="1" vertex="1">
          <mxGeometry x="-220" y="440" width="180" height="30" as="geometry" />
        </mxCell>
        <mxCell id="XW9KFBGHgBziSD6E--lj-162" value="" style="shape=partialRectangle;connectable=0;fillColor=none;top=0;left=0;bottom=0;right=0;editable=1;overflow=hidden;whiteSpace=wrap;html=1;" parent="XW9KFBGHgBziSD6E--lj-161" vertex="1">
          <mxGeometry width="30" height="30" as="geometry">
            <mxRectangle width="30" height="30" as="alternateBounds" />
          </mxGeometry>
        </mxCell>
        <mxCell id="XW9KFBGHgBziSD6E--lj-165" value="" style="shape=tableRow;horizontal=0;startSize=0;swimlaneHead=0;swimlaneBody=0;fillColor=none;collapsible=0;dropTarget=0;points=[[0,0.5],[1,0.5]];portConstraint=eastwest;top=0;left=0;right=0;bottom=0;" parent="1" vertex="1">
          <mxGeometry x="-220" y="470" width="180" height="30" as="geometry" />
        </mxCell>
        <mxCell id="XW9KFBGHgBziSD6E--lj-166" value="" style="shape=partialRectangle;connectable=0;fillColor=none;top=0;left=0;bottom=0;right=0;editable=1;overflow=hidden;whiteSpace=wrap;html=1;" parent="XW9KFBGHgBziSD6E--lj-165" vertex="1">
          <mxGeometry width="30" height="30" as="geometry">
            <mxRectangle width="30" height="30" as="alternateBounds" />
          </mxGeometry>
        </mxCell>
        <mxCell id="XW9KFBGHgBziSD6E--lj-168" value="" style="endArrow=none;html=1;rounded=0;fontFamily=Helvetica;fontSize=12;fontColor=default;fontStyle=1;exitX=0.164;exitY=-0.008;exitDx=0;exitDy=0;exitPerimeter=0;" parent="1" source="XW9KFBGHgBziSD6E--lj-170" edge="1">
          <mxGeometry width="50" height="50" relative="1" as="geometry">
            <mxPoint x="-190" y="560" as="sourcePoint" />
            <mxPoint x="-190" y="440" as="targetPoint" />
          </mxGeometry>
        </mxCell>
        <mxCell id="XW9KFBGHgBziSD6E--lj-170" value="" style="shape=tableRow;horizontal=0;startSize=0;swimlaneHead=0;swimlaneBody=0;fillColor=none;collapsible=0;dropTarget=0;points=[[0,0.5],[1,0.5]];portConstraint=eastwest;top=0;left=0;right=0;bottom=0;" parent="1" vertex="1">
          <mxGeometry x="-220" y="510" width="180" height="30" as="geometry" />
        </mxCell>
        <mxCell id="XW9KFBGHgBziSD6E--lj-171" value="" style="shape=partialRectangle;connectable=0;fillColor=none;top=0;left=0;bottom=0;right=0;editable=1;overflow=hidden;whiteSpace=wrap;html=1;" parent="XW9KFBGHgBziSD6E--lj-170" vertex="1">
          <mxGeometry width="30" height="30" as="geometry">
            <mxRectangle width="30" height="30" as="alternateBounds" />
          </mxGeometry>
        </mxCell>
        <mxCell id="XW9KFBGHgBziSD6E--lj-173" value="Loan" style="shape=table;startSize=30;container=1;collapsible=1;childLayout=tableLayout;fixedRows=1;rowLines=0;fontStyle=1;align=center;resizeLast=1;html=1;" parent="1" vertex="1">
          <mxGeometry x="150" y="140" width="220" height="270" as="geometry">
            <mxRectangle x="-220" y="150" width="80" height="30" as="alternateBounds" />
          </mxGeometry>
        </mxCell>
        <mxCell id="XW9KFBGHgBziSD6E--lj-174" value="" style="shape=tableRow;horizontal=0;startSize=0;swimlaneHead=0;swimlaneBody=0;fillColor=none;collapsible=0;dropTarget=0;points=[[0,0.5],[1,0.5]];portConstraint=eastwest;top=0;left=0;right=0;bottom=1;" parent="XW9KFBGHgBziSD6E--lj-173" vertex="1">
          <mxGeometry y="30" width="220" height="30" as="geometry" />
        </mxCell>
        <mxCell id="XW9KFBGHgBziSD6E--lj-175" value="PK" style="shape=partialRectangle;connectable=0;fillColor=none;top=0;left=0;bottom=0;right=0;fontStyle=1;overflow=hidden;whiteSpace=wrap;html=1;" parent="XW9KFBGHgBziSD6E--lj-174" vertex="1">
          <mxGeometry width="30" height="30" as="geometry">
            <mxRectangle width="30" height="30" as="alternateBounds" />
          </mxGeometry>
        </mxCell>
        <mxCell id="XW9KFBGHgBziSD6E--lj-176" value="loanId VARCHAR(100)" style="shape=partialRectangle;connectable=0;fillColor=none;top=0;left=0;bottom=0;right=0;align=left;spacingLeft=6;fontStyle=5;overflow=hidden;whiteSpace=wrap;html=1;" parent="XW9KFBGHgBziSD6E--lj-174" vertex="1">
          <mxGeometry x="30" width="190" height="30" as="geometry">
            <mxRectangle width="190" height="30" as="alternateBounds" />
          </mxGeometry>
        </mxCell>
        <mxCell id="XW9KFBGHgBziSD6E--lj-177" value="" style="shape=tableRow;horizontal=0;startSize=0;swimlaneHead=0;swimlaneBody=0;fillColor=none;collapsible=0;dropTarget=0;points=[[0,0.5],[1,0.5]];portConstraint=eastwest;top=0;left=0;right=0;bottom=0;" parent="XW9KFBGHgBziSD6E--lj-173" vertex="1">
          <mxGeometry y="60" width="220" height="30" as="geometry" />
        </mxCell>
        <mxCell id="XW9KFBGHgBziSD6E--lj-178" value="FK" style="shape=partialRectangle;connectable=0;fillColor=none;top=0;left=0;bottom=0;right=0;editable=1;overflow=hidden;whiteSpace=wrap;html=1;" parent="XW9KFBGHgBziSD6E--lj-177" vertex="1">
          <mxGeometry width="30" height="30" as="geometry">
            <mxRectangle width="30" height="30" as="alternateBounds" />
          </mxGeometry>
        </mxCell>
        <mxCell id="XW9KFBGHgBziSD6E--lj-179" value="memberId VARCHAR(100)" style="shape=partialRectangle;connectable=0;fillColor=none;top=0;left=0;bottom=0;right=0;align=left;spacingLeft=6;overflow=hidden;whiteSpace=wrap;html=1;" parent="XW9KFBGHgBziSD6E--lj-177" vertex="1">
          <mxGeometry x="30" width="190" height="30" as="geometry">
            <mxRectangle width="190" height="30" as="alternateBounds" />
          </mxGeometry>
        </mxCell>
        <mxCell id="XW9KFBGHgBziSD6E--lj-180" value="" style="shape=tableRow;horizontal=0;startSize=0;swimlaneHead=0;swimlaneBody=0;fillColor=none;collapsible=0;dropTarget=0;points=[[0,0.5],[1,0.5]];portConstraint=eastwest;top=0;left=0;right=0;bottom=0;" parent="XW9KFBGHgBziSD6E--lj-173" vertex="1">
          <mxGeometry y="90" width="220" height="30" as="geometry" />
        </mxCell>
        <mxCell id="XW9KFBGHgBziSD6E--lj-181" value="FK" style="shape=partialRectangle;connectable=0;fillColor=none;top=0;left=0;bottom=0;right=0;editable=1;overflow=hidden;whiteSpace=wrap;html=1;" parent="XW9KFBGHgBziSD6E--lj-180" vertex="1">
          <mxGeometry width="30" height="30" as="geometry">
            <mxRectangle width="30" height="30" as="alternateBounds" />
          </mxGeometry>
        </mxCell>
        <mxCell id="XW9KFBGHgBziSD6E--lj-182" value="resourceId VARCHAR(100)" style="shape=partialRectangle;connectable=0;fillColor=none;top=0;left=0;bottom=0;right=0;align=left;spacingLeft=6;overflow=hidden;whiteSpace=wrap;html=1;" parent="XW9KFBGHgBziSD6E--lj-180" vertex="1">
          <mxGeometry x="30" width="190" height="30" as="geometry">
            <mxRectangle width="190" height="30" as="alternateBounds" />
          </mxGeometry>
        </mxCell>
        <mxCell id="XW9KFBGHgBziSD6E--lj-183" value="" style="shape=tableRow;horizontal=0;startSize=0;swimlaneHead=0;swimlaneBody=0;fillColor=none;collapsible=0;dropTarget=0;points=[[0,0.5],[1,0.5]];portConstraint=eastwest;top=0;left=0;right=0;bottom=0;" parent="XW9KFBGHgBziSD6E--lj-173" vertex="1">
          <mxGeometry y="120" width="220" height="30" as="geometry" />
        </mxCell>
        <mxCell id="XW9KFBGHgBziSD6E--lj-184" value="" style="shape=partialRectangle;connectable=0;fillColor=none;top=0;left=0;bottom=0;right=0;editable=1;overflow=hidden;whiteSpace=wrap;html=1;" parent="XW9KFBGHgBziSD6E--lj-183" vertex="1">
          <mxGeometry width="30" height="30" as="geometry">
            <mxRectangle width="30" height="30" as="alternateBounds" />
          </mxGeometry>
        </mxCell>
        <mxCell id="XW9KFBGHgBziSD6E--lj-185" value="loanDate DATE" style="shape=partialRectangle;connectable=0;fillColor=none;top=0;left=0;bottom=0;right=0;align=left;spacingLeft=6;overflow=hidden;whiteSpace=wrap;html=1;" parent="XW9KFBGHgBziSD6E--lj-183" vertex="1">
          <mxGeometry x="30" width="190" height="30" as="geometry">
            <mxRectangle width="190" height="30" as="alternateBounds" />
          </mxGeometry>
        </mxCell>
        <mxCell id="XW9KFBGHgBziSD6E--lj-186" value="" style="shape=tableRow;horizontal=0;startSize=0;swimlaneHead=0;swimlaneBody=0;fillColor=none;collapsible=0;dropTarget=0;points=[[0,0.5],[1,0.5]];portConstraint=eastwest;top=0;left=0;right=0;bottom=0;" parent="1" vertex="1">
          <mxGeometry x="150" y="290" width="220" height="30" as="geometry" />
        </mxCell>
        <mxCell id="XW9KFBGHgBziSD6E--lj-187" value="" style="shape=partialRectangle;connectable=0;fillColor=none;top=0;left=0;bottom=0;right=0;editable=1;overflow=hidden;whiteSpace=wrap;html=1;" parent="XW9KFBGHgBziSD6E--lj-186" vertex="1">
          <mxGeometry width="30" height="30" as="geometry">
            <mxRectangle width="30" height="30" as="alternateBounds" />
          </mxGeometry>
        </mxCell>
        <mxCell id="XW9KFBGHgBziSD6E--lj-189" value="" style="shape=tableRow;horizontal=0;startSize=0;swimlaneHead=0;swimlaneBody=0;fillColor=none;collapsible=0;dropTarget=0;points=[[0,0.5],[1,0.5]];portConstraint=eastwest;top=0;left=0;right=0;bottom=0;" parent="1" vertex="1">
          <mxGeometry x="150" y="320" width="180" height="30" as="geometry" />
        </mxCell>
        <mxCell id="XW9KFBGHgBziSD6E--lj-190" value="" style="shape=partialRectangle;connectable=0;fillColor=none;top=0;left=0;bottom=0;right=0;editable=1;overflow=hidden;whiteSpace=wrap;html=1;" parent="XW9KFBGHgBziSD6E--lj-189" vertex="1">
          <mxGeometry width="30" height="30" as="geometry">
            <mxRectangle width="30" height="30" as="alternateBounds" />
          </mxGeometry>
        </mxCell>
        <mxCell id="XW9KFBGHgBziSD6E--lj-191" value="dueDate DATE" style="shape=partialRectangle;connectable=0;fillColor=none;top=0;left=0;bottom=0;right=0;align=left;spacingLeft=6;overflow=hidden;whiteSpace=wrap;html=1;" parent="1" vertex="1">
          <mxGeometry x="180" y="290" width="150" height="30" as="geometry">
            <mxRectangle width="150" height="30" as="alternateBounds" />
          </mxGeometry>
        </mxCell>
        <mxCell id="XW9KFBGHgBziSD6E--lj-192" value="" style="endArrow=none;html=1;rounded=0;fontFamily=Helvetica;fontSize=12;fontColor=default;fontStyle=1;" parent="1" edge="1">
          <mxGeometry width="50" height="50" relative="1" as="geometry">
            <mxPoint x="180" y="410" as="sourcePoint" />
            <mxPoint x="180" y="290" as="targetPoint" />
          </mxGeometry>
        </mxCell>
        <mxCell id="XW9KFBGHgBziSD6E--lj-193" value="" style="shape=tableRow;horizontal=0;startSize=0;swimlaneHead=0;swimlaneBody=0;fillColor=none;collapsible=0;dropTarget=0;points=[[0,0.5],[1,0.5]];portConstraint=eastwest;top=0;left=0;right=0;bottom=0;" parent="1" vertex="1">
          <mxGeometry x="150" y="360" width="220" height="30" as="geometry" />
        </mxCell>
        <mxCell id="XW9KFBGHgBziSD6E--lj-194" value="" style="shape=partialRectangle;connectable=0;fillColor=none;top=0;left=0;bottom=0;right=0;editable=1;overflow=hidden;whiteSpace=wrap;html=1;" parent="XW9KFBGHgBziSD6E--lj-193" vertex="1">
          <mxGeometry width="30" height="30" as="geometry">
            <mxRectangle width="30" height="30" as="alternateBounds" />
          </mxGeometry>
        </mxCell>
        <mxCell id="XW9KFBGHgBziSD6E--lj-195" value="returnDate DATE Default NULL" style="shape=partialRectangle;connectable=0;fillColor=none;top=0;left=0;bottom=0;right=0;align=left;spacingLeft=6;overflow=hidden;whiteSpace=wrap;html=1;" parent="XW9KFBGHgBziSD6E--lj-193" vertex="1">
          <mxGeometry x="30" y="-40" width="190" height="30" as="geometry">
            <mxRectangle width="150" height="30" as="alternateBounds" />
          </mxGeometry>
        </mxCell>
        <mxCell id="XW9KFBGHgBziSD6E--lj-163" value="memberType ENUM(&#39;Student&#39;, &#39;Staff)" style="shape=partialRectangle;connectable=0;fillColor=none;top=0;left=0;bottom=0;right=0;align=left;spacingLeft=6;overflow=hidden;whiteSpace=wrap;html=1;" parent="1" vertex="1">
          <mxGeometry x="-190" y="460" width="150" height="30" as="geometry">
            <mxRectangle width="150" height="30" as="alternateBounds" />
          </mxGeometry>
        </mxCell>
        <mxCell id="XW9KFBGHgBziSD6E--lj-197" value="" style="edgeStyle=entityRelationEdgeStyle;fontSize=12;html=1;endArrow=ERoneToMany;rounded=0;fontFamily=Helvetica;fontColor=default;fontStyle=1;exitX=1;exitY=0.5;exitDx=0;exitDy=0;entryX=0;entryY=0.5;entryDx=0;entryDy=0;" parent="1" source="XW9KFBGHgBziSD6E--lj-107" target="XW9KFBGHgBziSD6E--lj-177" edge="1">
          <mxGeometry width="100" height="100" relative="1" as="geometry">
            <mxPoint x="350" y="470" as="sourcePoint" />
            <mxPoint x="450" y="370" as="targetPoint" />
          </mxGeometry>
        </mxCell>
        <mxCell id="XW9KFBGHgBziSD6E--lj-198" value="" style="shape=tableRow;horizontal=0;startSize=0;swimlaneHead=0;swimlaneBody=0;fillColor=none;collapsible=0;dropTarget=0;points=[[0,0.5],[1,0.5]];portConstraint=eastwest;top=0;left=0;right=0;bottom=0;" parent="1" vertex="1">
          <mxGeometry x="150" y="390" width="220" height="30" as="geometry" />
        </mxCell>
        <mxCell id="XW9KFBGHgBziSD6E--lj-199" value="" style="shape=partialRectangle;connectable=0;fillColor=none;top=0;left=0;bottom=0;right=0;editable=1;overflow=hidden;whiteSpace=wrap;html=1;" parent="XW9KFBGHgBziSD6E--lj-198" vertex="1">
          <mxGeometry width="30" height="30" as="geometry">
            <mxRectangle width="30" height="30" as="alternateBounds" />
          </mxGeometry>
        </mxCell>
        <mxCell id="XW9KFBGHgBziSD6E--lj-202" value="Resource" style="shape=table;startSize=30;container=1;collapsible=1;childLayout=tableLayout;fixedRows=1;rowLines=0;fontStyle=1;align=center;resizeLast=1;html=1;" parent="1" vertex="1">
          <mxGeometry x="-274" y="-200" width="324" height="290" as="geometry">
            <mxRectangle x="-220" y="150" width="80" height="30" as="alternateBounds" />
          </mxGeometry>
        </mxCell>
        <mxCell id="XW9KFBGHgBziSD6E--lj-203" value="" style="shape=tableRow;horizontal=0;startSize=0;swimlaneHead=0;swimlaneBody=0;fillColor=none;collapsible=0;dropTarget=0;points=[[0,0.5],[1,0.5]];portConstraint=eastwest;top=0;left=0;right=0;bottom=1;" parent="XW9KFBGHgBziSD6E--lj-202" vertex="1">
          <mxGeometry y="30" width="324" height="50" as="geometry" />
        </mxCell>
        <mxCell id="XW9KFBGHgBziSD6E--lj-204" value="&lt;div&gt;PK&lt;br&gt;FK&lt;/div&gt;" style="shape=partialRectangle;connectable=0;fillColor=none;top=0;left=0;bottom=0;right=0;fontStyle=1;overflow=hidden;whiteSpace=wrap;html=1;" parent="XW9KFBGHgBziSD6E--lj-203" vertex="1">
          <mxGeometry width="30" height="50" as="geometry">
            <mxRectangle width="30" height="50" as="alternateBounds" />
          </mxGeometry>
        </mxCell>
        <mxCell id="XW9KFBGHgBziSD6E--lj-205" value="resourceId VARCHAR(100)" style="shape=partialRectangle;connectable=0;fillColor=none;top=0;left=0;bottom=0;right=0;align=left;spacingLeft=6;fontStyle=5;overflow=hidden;whiteSpace=wrap;html=1;" parent="XW9KFBGHgBziSD6E--lj-203" vertex="1">
          <mxGeometry x="30" width="294" height="50" as="geometry">
            <mxRectangle width="294" height="50" as="alternateBounds" />
          </mxGeometry>
        </mxCell>
        <mxCell id="XW9KFBGHgBziSD6E--lj-206" value="" style="shape=tableRow;horizontal=0;startSize=0;swimlaneHead=0;swimlaneBody=0;fillColor=none;collapsible=0;dropTarget=0;points=[[0,0.5],[1,0.5]];portConstraint=eastwest;top=0;left=0;right=0;bottom=0;" parent="XW9KFBGHgBziSD6E--lj-202" vertex="1">
          <mxGeometry y="80" width="324" height="40" as="geometry" />
        </mxCell>
        <mxCell id="XW9KFBGHgBziSD6E--lj-207" value="" style="shape=partialRectangle;connectable=0;fillColor=none;top=0;left=0;bottom=0;right=0;editable=1;overflow=hidden;whiteSpace=wrap;html=1;" parent="XW9KFBGHgBziSD6E--lj-206" vertex="1">
          <mxGeometry width="30" height="40" as="geometry">
            <mxRectangle width="30" height="40" as="alternateBounds" />
          </mxGeometry>
        </mxCell>
        <mxCell id="XW9KFBGHgBziSD6E--lj-208" value="resourceType ENUM(&#39;book&#39;, &#39;eBook&#39;, &#39;device&#39;)&amp;nbsp;" style="shape=partialRectangle;connectable=0;fillColor=none;top=0;left=0;bottom=0;right=0;align=left;spacingLeft=6;overflow=hidden;whiteSpace=wrap;html=1;" parent="XW9KFBGHgBziSD6E--lj-206" vertex="1">
          <mxGeometry x="30" width="294" height="40" as="geometry">
            <mxRectangle width="294" height="40" as="alternateBounds" />
          </mxGeometry>
        </mxCell>
        <mxCell id="XW9KFBGHgBziSD6E--lj-209" value="" style="shape=tableRow;horizontal=0;startSize=0;swimlaneHead=0;swimlaneBody=0;fillColor=none;collapsible=0;dropTarget=0;points=[[0,0.5],[1,0.5]];portConstraint=eastwest;top=0;left=0;right=0;bottom=0;" parent="XW9KFBGHgBziSD6E--lj-202" vertex="1">
          <mxGeometry y="120" width="324" height="30" as="geometry" />
        </mxCell>
        <mxCell id="XW9KFBGHgBziSD6E--lj-210" value="FK" style="shape=partialRectangle;connectable=0;fillColor=none;top=0;left=0;bottom=0;right=0;editable=1;overflow=hidden;whiteSpace=wrap;html=1;" parent="XW9KFBGHgBziSD6E--lj-209" vertex="1">
          <mxGeometry width="30" height="30" as="geometry">
            <mxRectangle width="30" height="30" as="alternateBounds" />
          </mxGeometry>
        </mxCell>
        <mxCell id="XW9KFBGHgBziSD6E--lj-211" value="locationId VARCHAR(100)" style="shape=partialRectangle;connectable=0;fillColor=none;top=0;left=0;bottom=0;right=0;align=left;spacingLeft=6;overflow=hidden;whiteSpace=wrap;html=1;" parent="XW9KFBGHgBziSD6E--lj-209" vertex="1">
          <mxGeometry x="30" width="294" height="30" as="geometry">
            <mxRectangle width="294" height="30" as="alternateBounds" />
          </mxGeometry>
        </mxCell>
        <mxCell id="XW9KFBGHgBziSD6E--lj-212" value="" style="shape=tableRow;horizontal=0;startSize=0;swimlaneHead=0;swimlaneBody=0;fillColor=none;collapsible=0;dropTarget=0;points=[[0,0.5],[1,0.5]];portConstraint=eastwest;top=0;left=0;right=0;bottom=0;" parent="XW9KFBGHgBziSD6E--lj-202" vertex="1">
          <mxGeometry y="150" width="324" height="40" as="geometry" />
        </mxCell>
        <mxCell id="XW9KFBGHgBziSD6E--lj-213" value="" style="shape=partialRectangle;connectable=0;fillColor=none;top=0;left=0;bottom=0;right=0;editable=1;overflow=hidden;whiteSpace=wrap;html=1;" parent="XW9KFBGHgBziSD6E--lj-212" vertex="1">
          <mxGeometry width="30" height="40" as="geometry">
            <mxRectangle width="30" height="40" as="alternateBounds" />
          </mxGeometry>
        </mxCell>
        <mxCell id="XW9KFBGHgBziSD6E--lj-214" value="borrowRule ENUM(&#39;short&#39;, &#39;normal&#39;, &#39;on site&#39;)&amp;nbsp;" style="shape=partialRectangle;connectable=0;fillColor=none;top=0;left=0;bottom=0;right=0;align=left;spacingLeft=6;overflow=hidden;whiteSpace=wrap;html=1;" parent="XW9KFBGHgBziSD6E--lj-212" vertex="1">
          <mxGeometry x="30" width="294" height="40" as="geometry">
            <mxRectangle width="294" height="40" as="alternateBounds" />
          </mxGeometry>
        </mxCell>
        <mxCell id="XW9KFBGHgBziSD6E--lj-215" value="" style="shape=tableRow;horizontal=0;startSize=0;swimlaneHead=0;swimlaneBody=0;fillColor=none;collapsible=0;dropTarget=0;points=[[0,0.5],[1,0.5]];portConstraint=eastwest;top=0;left=0;right=0;bottom=0;" parent="1" vertex="1">
          <mxGeometry x="-274" y="-50" width="180" height="30" as="geometry" />
        </mxCell>
        <mxCell id="XW9KFBGHgBziSD6E--lj-216" value="" style="shape=partialRectangle;connectable=0;fillColor=none;top=0;left=0;bottom=0;right=0;editable=1;overflow=hidden;whiteSpace=wrap;html=1;" parent="XW9KFBGHgBziSD6E--lj-215" vertex="1">
          <mxGeometry width="30" height="30" as="geometry">
            <mxRectangle width="30" height="30" as="alternateBounds" />
          </mxGeometry>
        </mxCell>
        <mxCell id="XW9KFBGHgBziSD6E--lj-217" value="" style="shape=tableRow;horizontal=0;startSize=0;swimlaneHead=0;swimlaneBody=0;fillColor=none;collapsible=0;dropTarget=0;points=[[0,0.5],[1,0.5]];portConstraint=eastwest;top=0;left=0;right=0;bottom=0;" parent="1" vertex="1">
          <mxGeometry x="-274" y="-20" width="180" height="30" as="geometry" />
        </mxCell>
        <mxCell id="XW9KFBGHgBziSD6E--lj-218" value="" style="shape=partialRectangle;connectable=0;fillColor=none;top=0;left=0;bottom=0;right=0;editable=1;overflow=hidden;whiteSpace=wrap;html=1;" parent="XW9KFBGHgBziSD6E--lj-217" vertex="1">
          <mxGeometry width="30" height="30" as="geometry">
            <mxRectangle width="30" height="30" as="alternateBounds" />
          </mxGeometry>
        </mxCell>
        <mxCell id="XW9KFBGHgBziSD6E--lj-219" value="digitalCopy INT" style="shape=partialRectangle;connectable=0;fillColor=none;top=0;left=0;bottom=0;right=0;align=left;spacingLeft=6;overflow=hidden;whiteSpace=wrap;html=1;" parent="1" vertex="1">
          <mxGeometry x="-244" y="-10" width="150" height="30" as="geometry">
            <mxRectangle width="150" height="30" as="alternateBounds" />
          </mxGeometry>
        </mxCell>
        <mxCell id="XW9KFBGHgBziSD6E--lj-220" value="" style="endArrow=none;html=1;rounded=0;fontFamily=Helvetica;fontSize=12;fontColor=default;fontStyle=1;exitX=0.112;exitY=0.918;exitDx=0;exitDy=0;exitPerimeter=0;" parent="1" source="XW9KFBGHgBziSD6E--lj-230" edge="1">
          <mxGeometry width="50" height="50" relative="1" as="geometry">
            <mxPoint x="-241" y="80" as="sourcePoint" />
            <mxPoint x="-244" y="-50" as="targetPoint" />
          </mxGeometry>
        </mxCell>
        <mxCell id="XW9KFBGHgBziSD6E--lj-221" value="" style="shape=tableRow;horizontal=0;startSize=0;swimlaneHead=0;swimlaneBody=0;fillColor=none;collapsible=0;dropTarget=0;points=[[0,0.5],[1,0.5]];portConstraint=eastwest;top=0;left=0;right=0;bottom=0;" parent="1" vertex="1">
          <mxGeometry x="-274" y="20" width="180" height="30" as="geometry" />
        </mxCell>
        <mxCell id="XW9KFBGHgBziSD6E--lj-222" value="" style="shape=partialRectangle;connectable=0;fillColor=none;top=0;left=0;bottom=0;right=0;editable=1;overflow=hidden;whiteSpace=wrap;html=1;" parent="XW9KFBGHgBziSD6E--lj-221" vertex="1">
          <mxGeometry width="30" height="30" as="geometry">
            <mxRectangle width="30" height="30" as="alternateBounds" />
          </mxGeometry>
        </mxCell>
        <mxCell id="XW9KFBGHgBziSD6E--lj-225" value="borrowRule" style="ellipse;shape=doubleEllipse;margin=3;whiteSpace=wrap;html=1;align=center;strokeColor=default;verticalAlign=middle;fontFamily=Helvetica;fontSize=12;fontColor=default;fontStyle=1;fillColor=default;" parent="1" vertex="1">
          <mxGeometry x="390" y="1170" width="100" height="40" as="geometry" />
        </mxCell>
        <mxCell id="XW9KFBGHgBziSD6E--lj-226" value="" style="edgeStyle=entityRelationEdgeStyle;fontSize=12;html=1;endArrow=ERmandOne;startArrow=ERmandOne;rounded=0;fontFamily=Helvetica;fontColor=default;fontStyle=1;exitX=1;exitY=0.5;exitDx=0;exitDy=0;entryX=0;entryY=0.5;entryDx=0;entryDy=0;" parent="1" source="XW9KFBGHgBziSD6E--lj-203" target="XW9KFBGHgBziSD6E--lj-180" edge="1">
          <mxGeometry width="100" height="100" relative="1" as="geometry">
            <mxPoint x="200" y="280" as="sourcePoint" />
            <mxPoint x="300" y="180" as="targetPoint" />
          </mxGeometry>
        </mxCell>
        <mxCell id="XW9KFBGHgBziSD6E--lj-227" value="" style="shape=tableRow;horizontal=0;startSize=0;swimlaneHead=0;swimlaneBody=0;fillColor=none;collapsible=0;dropTarget=0;points=[[0,0.5],[1,0.5]];portConstraint=eastwest;top=0;left=0;right=0;bottom=0;" parent="1" vertex="1">
          <mxGeometry x="-275" y="40" width="279" height="30" as="geometry" />
        </mxCell>
        <mxCell id="XW9KFBGHgBziSD6E--lj-230" value="" style="shape=tableRow;horizontal=0;startSize=0;swimlaneHead=0;swimlaneBody=0;fillColor=none;collapsible=0;dropTarget=0;points=[[0,0.5],[1,0.5]];portConstraint=eastwest;top=0;left=0;right=0;bottom=0;" parent="1" vertex="1">
          <mxGeometry x="-273" y="70" width="289" height="30" as="geometry" />
        </mxCell>
        <mxCell id="XW9KFBGHgBziSD6E--lj-231" value="" style="shape=partialRectangle;connectable=0;fillColor=none;top=0;left=0;bottom=0;right=0;editable=1;overflow=hidden;whiteSpace=wrap;html=1;" parent="XW9KFBGHgBziSD6E--lj-230" vertex="1">
          <mxGeometry width="30" height="30" as="geometry">
            <mxRectangle width="30" height="30" as="alternateBounds" />
          </mxGeometry>
        </mxCell>
        <mxCell id="XW9KFBGHgBziSD6E--lj-234" value="" style="shape=tableRow;horizontal=0;startSize=0;swimlaneHead=0;swimlaneBody=0;fillColor=none;collapsible=0;dropTarget=0;points=[[0,0.5],[1,0.5]];portConstraint=eastwest;top=0;left=0;right=0;bottom=0;" parent="1" vertex="1">
          <mxGeometry x="-276" y="98" width="289" height="30" as="geometry" />
        </mxCell>
        <mxCell id="XW9KFBGHgBziSD6E--lj-235" value="" style="shape=partialRectangle;connectable=0;fillColor=none;top=0;left=0;bottom=0;right=0;editable=1;overflow=hidden;whiteSpace=wrap;html=1;" parent="XW9KFBGHgBziSD6E--lj-234" vertex="1">
          <mxGeometry width="30" height="30" as="geometry">
            <mxRectangle width="30" height="30" as="alternateBounds" />
          </mxGeometry>
        </mxCell>
        <mxCell id="XW9KFBGHgBziSD6E--lj-237" value="" style="shape=tableRow;horizontal=0;startSize=0;swimlaneHead=0;swimlaneBody=0;fillColor=none;collapsible=0;dropTarget=0;points=[[0,0.5],[1,0.5]];portConstraint=eastwest;top=0;left=0;right=0;bottom=0;" parent="1" vertex="1">
          <mxGeometry x="-274" y="120" width="330" height="40" as="geometry" />
        </mxCell>
        <mxCell id="XW9KFBGHgBziSD6E--lj-240" value="Location" style="shape=table;startSize=30;container=1;collapsible=1;childLayout=tableLayout;fixedRows=1;rowLines=0;fontStyle=1;align=center;resizeLast=1;html=1;" parent="1" vertex="1">
          <mxGeometry x="-640" y="-130" width="200" height="200" as="geometry">
            <mxRectangle x="-220" y="150" width="80" height="30" as="alternateBounds" />
          </mxGeometry>
        </mxCell>
        <mxCell id="XW9KFBGHgBziSD6E--lj-241" value="" style="shape=tableRow;horizontal=0;startSize=0;swimlaneHead=0;swimlaneBody=0;fillColor=none;collapsible=0;dropTarget=0;points=[[0,0.5],[1,0.5]];portConstraint=eastwest;top=0;left=0;right=0;bottom=1;" parent="XW9KFBGHgBziSD6E--lj-240" vertex="1">
          <mxGeometry y="30" width="200" height="50" as="geometry" />
        </mxCell>
        <mxCell id="XW9KFBGHgBziSD6E--lj-242" value="&lt;div&gt;PK&lt;br&gt;FK&lt;/div&gt;" style="shape=partialRectangle;connectable=0;fillColor=none;top=0;left=0;bottom=0;right=0;fontStyle=1;overflow=hidden;whiteSpace=wrap;html=1;" parent="XW9KFBGHgBziSD6E--lj-241" vertex="1">
          <mxGeometry width="30" height="50" as="geometry">
            <mxRectangle width="30" height="50" as="alternateBounds" />
          </mxGeometry>
        </mxCell>
        <mxCell id="XW9KFBGHgBziSD6E--lj-243" value="locationId VARCHAR(100)" style="shape=partialRectangle;connectable=0;fillColor=none;top=0;left=0;bottom=0;right=0;align=left;spacingLeft=6;fontStyle=5;overflow=hidden;whiteSpace=wrap;html=1;" parent="XW9KFBGHgBziSD6E--lj-241" vertex="1">
          <mxGeometry x="30" width="170" height="50" as="geometry">
            <mxRectangle width="170" height="50" as="alternateBounds" />
          </mxGeometry>
        </mxCell>
        <mxCell id="XW9KFBGHgBziSD6E--lj-244" value="" style="shape=tableRow;horizontal=0;startSize=0;swimlaneHead=0;swimlaneBody=0;fillColor=none;collapsible=0;dropTarget=0;points=[[0,0.5],[1,0.5]];portConstraint=eastwest;top=0;left=0;right=0;bottom=0;" parent="XW9KFBGHgBziSD6E--lj-240" vertex="1">
          <mxGeometry y="80" width="200" height="30" as="geometry" />
        </mxCell>
        <mxCell id="XW9KFBGHgBziSD6E--lj-245" value="" style="shape=partialRectangle;connectable=0;fillColor=none;top=0;left=0;bottom=0;right=0;editable=1;overflow=hidden;whiteSpace=wrap;html=1;" parent="XW9KFBGHgBziSD6E--lj-244" vertex="1">
          <mxGeometry width="30" height="30" as="geometry">
            <mxRectangle width="30" height="30" as="alternateBounds" />
          </mxGeometry>
        </mxCell>
        <mxCell id="XW9KFBGHgBziSD6E--lj-246" value="floorNumber VARCHAR(20)" style="shape=partialRectangle;connectable=0;fillColor=none;top=0;left=0;bottom=0;right=0;align=left;spacingLeft=6;overflow=hidden;whiteSpace=wrap;html=1;" parent="XW9KFBGHgBziSD6E--lj-244" vertex="1">
          <mxGeometry x="30" width="170" height="30" as="geometry">
            <mxRectangle width="170" height="30" as="alternateBounds" />
          </mxGeometry>
        </mxCell>
        <mxCell id="XW9KFBGHgBziSD6E--lj-247" value="" style="shape=tableRow;horizontal=0;startSize=0;swimlaneHead=0;swimlaneBody=0;fillColor=none;collapsible=0;dropTarget=0;points=[[0,0.5],[1,0.5]];portConstraint=eastwest;top=0;left=0;right=0;bottom=0;" parent="XW9KFBGHgBziSD6E--lj-240" vertex="1">
          <mxGeometry y="110" width="200" height="30" as="geometry" />
        </mxCell>
        <mxCell id="XW9KFBGHgBziSD6E--lj-248" value="" style="shape=partialRectangle;connectable=0;fillColor=none;top=0;left=0;bottom=0;right=0;editable=1;overflow=hidden;whiteSpace=wrap;html=1;" parent="XW9KFBGHgBziSD6E--lj-247" vertex="1">
          <mxGeometry width="30" height="30" as="geometry">
            <mxRectangle width="30" height="30" as="alternateBounds" />
          </mxGeometry>
        </mxCell>
        <mxCell id="XW9KFBGHgBziSD6E--lj-249" value="shelfNumber VARCHAR(20)" style="shape=partialRectangle;connectable=0;fillColor=none;top=0;left=0;bottom=0;right=0;align=left;spacingLeft=6;overflow=hidden;whiteSpace=wrap;html=1;" parent="XW9KFBGHgBziSD6E--lj-247" vertex="1">
          <mxGeometry x="30" width="170" height="30" as="geometry">
            <mxRectangle width="170" height="30" as="alternateBounds" />
          </mxGeometry>
        </mxCell>
        <mxCell id="XW9KFBGHgBziSD6E--lj-250" value="" style="shape=tableRow;horizontal=0;startSize=0;swimlaneHead=0;swimlaneBody=0;fillColor=none;collapsible=0;dropTarget=0;points=[[0,0.5],[1,0.5]];portConstraint=eastwest;top=0;left=0;right=0;bottom=0;" parent="XW9KFBGHgBziSD6E--lj-240" vertex="1">
          <mxGeometry y="140" width="200" height="30" as="geometry" />
        </mxCell>
        <mxCell id="XW9KFBGHgBziSD6E--lj-251" value="" style="shape=partialRectangle;connectable=0;fillColor=none;top=0;left=0;bottom=0;right=0;editable=1;overflow=hidden;whiteSpace=wrap;html=1;" parent="XW9KFBGHgBziSD6E--lj-250" vertex="1">
          <mxGeometry width="30" height="30" as="geometry">
            <mxRectangle width="30" height="30" as="alternateBounds" />
          </mxGeometry>
        </mxCell>
        <mxCell id="XW9KFBGHgBziSD6E--lj-252" value="sectionName VARCHAR(100)" style="shape=partialRectangle;connectable=0;fillColor=none;top=0;left=0;bottom=0;right=0;align=left;spacingLeft=6;overflow=hidden;whiteSpace=wrap;html=1;" parent="XW9KFBGHgBziSD6E--lj-250" vertex="1">
          <mxGeometry x="30" width="170" height="30" as="geometry">
            <mxRectangle width="170" height="30" as="alternateBounds" />
          </mxGeometry>
        </mxCell>
        <mxCell id="XW9KFBGHgBziSD6E--lj-253" value="" style="shape=tableRow;horizontal=0;startSize=0;swimlaneHead=0;swimlaneBody=0;fillColor=none;collapsible=0;dropTarget=0;points=[[0,0.5],[1,0.5]];portConstraint=eastwest;top=0;left=0;right=0;bottom=0;" parent="1" vertex="1">
          <mxGeometry x="-640" y="20" width="180" height="30" as="geometry" />
        </mxCell>
        <mxCell id="XW9KFBGHgBziSD6E--lj-254" value="" style="shape=partialRectangle;connectable=0;fillColor=none;top=0;left=0;bottom=0;right=0;editable=1;overflow=hidden;whiteSpace=wrap;html=1;" parent="XW9KFBGHgBziSD6E--lj-253" vertex="1">
          <mxGeometry width="30" height="30" as="geometry">
            <mxRectangle width="30" height="30" as="alternateBounds" />
          </mxGeometry>
        </mxCell>
        <mxCell id="XW9KFBGHgBziSD6E--lj-255" value="" style="shape=tableRow;horizontal=0;startSize=0;swimlaneHead=0;swimlaneBody=0;fillColor=none;collapsible=0;dropTarget=0;points=[[0,0.5],[1,0.5]];portConstraint=eastwest;top=0;left=0;right=0;bottom=0;" parent="1" vertex="1">
          <mxGeometry x="-640" y="50" width="180" height="30" as="geometry" />
        </mxCell>
        <mxCell id="XW9KFBGHgBziSD6E--lj-256" value="" style="shape=partialRectangle;connectable=0;fillColor=none;top=0;left=0;bottom=0;right=0;editable=1;overflow=hidden;whiteSpace=wrap;html=1;" parent="XW9KFBGHgBziSD6E--lj-255" vertex="1">
          <mxGeometry width="30" height="30" as="geometry">
            <mxRectangle width="30" height="30" as="alternateBounds" />
          </mxGeometry>
        </mxCell>
        <mxCell id="XW9KFBGHgBziSD6E--lj-258" value="" style="endArrow=none;html=1;rounded=0;fontFamily=Helvetica;fontSize=12;fontColor=default;fontStyle=1;exitX=0.152;exitY=1;exitDx=0;exitDy=0;exitPerimeter=0;" parent="1" source="XW9KFBGHgBziSD6E--lj-264" edge="1">
          <mxGeometry width="50" height="50" relative="1" as="geometry">
            <mxPoint x="-610" y="40" as="sourcePoint" />
            <mxPoint x="-610" y="20" as="targetPoint" />
          </mxGeometry>
        </mxCell>
        <mxCell id="XW9KFBGHgBziSD6E--lj-264" value="" style="shape=tableRow;horizontal=0;startSize=0;swimlaneHead=0;swimlaneBody=0;fillColor=none;collapsible=0;dropTarget=0;points=[[0,0.5],[1,0.5]];portConstraint=eastwest;top=0;left=0;right=0;bottom=0;" parent="1" vertex="1">
          <mxGeometry x="-640" y="40" width="200" height="30" as="geometry" />
        </mxCell>
        <mxCell id="XW9KFBGHgBziSD6E--lj-265" value="FK" style="shape=partialRectangle;connectable=0;fillColor=none;top=0;left=0;bottom=0;right=0;editable=1;overflow=hidden;whiteSpace=wrap;html=1;" parent="XW9KFBGHgBziSD6E--lj-264" vertex="1">
          <mxGeometry width="30" height="30" as="geometry">
            <mxRectangle width="30" height="30" as="alternateBounds" />
          </mxGeometry>
        </mxCell>
        <mxCell id="XW9KFBGHgBziSD6E--lj-266" value="classNumber VARCHAR(20)" style="shape=partialRectangle;connectable=0;fillColor=none;top=0;left=0;bottom=0;right=0;align=left;spacingLeft=6;overflow=hidden;whiteSpace=wrap;html=1;" parent="XW9KFBGHgBziSD6E--lj-264" vertex="1">
          <mxGeometry x="30" width="170" height="30" as="geometry">
            <mxRectangle width="170" height="30" as="alternateBounds" />
          </mxGeometry>
        </mxCell>
        <mxCell id="XW9KFBGHgBziSD6E--lj-268" value="" style="edgeStyle=entityRelationEdgeStyle;fontSize=12;html=1;endArrow=ERmandOne;startArrow=ERmandOne;rounded=0;fontFamily=Helvetica;fontColor=default;fontStyle=1;exitX=1;exitY=0.5;exitDx=0;exitDy=0;entryX=0;entryY=0.5;entryDx=0;entryDy=0;" parent="1" source="XW9KFBGHgBziSD6E--lj-264" edge="1">
          <mxGeometry width="100" height="100" relative="1" as="geometry">
            <mxPoint x="-438" y="34.5" as="sourcePoint" />
            <mxPoint x="-273" y="34.5" as="targetPoint" />
          </mxGeometry>
        </mxCell>
        <mxCell id="XW9KFBGHgBziSD6E--lj-269" value="Reservation" style="shape=table;startSize=30;container=1;collapsible=1;childLayout=tableLayout;fixedRows=1;rowLines=0;fontStyle=1;align=center;resizeLast=1;html=1;" parent="1" vertex="1">
          <mxGeometry x="-710" y="240" width="294" height="220" as="geometry">
            <mxRectangle x="-220" y="150" width="80" height="30" as="alternateBounds" />
          </mxGeometry>
        </mxCell>
        <mxCell id="XW9KFBGHgBziSD6E--lj-270" value="" style="shape=tableRow;horizontal=0;startSize=0;swimlaneHead=0;swimlaneBody=0;fillColor=none;collapsible=0;dropTarget=0;points=[[0,0.5],[1,0.5]];portConstraint=eastwest;top=0;left=0;right=0;bottom=1;" parent="XW9KFBGHgBziSD6E--lj-269" vertex="1">
          <mxGeometry y="30" width="294" height="50" as="geometry" />
        </mxCell>
        <mxCell id="XW9KFBGHgBziSD6E--lj-271" value="&lt;div&gt;PK&lt;br&gt;FK&lt;/div&gt;" style="shape=partialRectangle;connectable=0;fillColor=none;top=0;left=0;bottom=0;right=0;fontStyle=1;overflow=hidden;whiteSpace=wrap;html=1;" parent="XW9KFBGHgBziSD6E--lj-270" vertex="1">
          <mxGeometry width="30" height="50" as="geometry">
            <mxRectangle width="30" height="50" as="alternateBounds" />
          </mxGeometry>
        </mxCell>
        <mxCell id="XW9KFBGHgBziSD6E--lj-272" value="reservationId VARCHAR(100)" style="shape=partialRectangle;connectable=0;fillColor=none;top=0;left=0;bottom=0;right=0;align=left;spacingLeft=6;fontStyle=5;overflow=hidden;whiteSpace=wrap;html=1;" parent="XW9KFBGHgBziSD6E--lj-270" vertex="1">
          <mxGeometry x="30" width="264" height="50" as="geometry">
            <mxRectangle width="264" height="50" as="alternateBounds" />
          </mxGeometry>
        </mxCell>
        <mxCell id="XW9KFBGHgBziSD6E--lj-273" value="" style="shape=tableRow;horizontal=0;startSize=0;swimlaneHead=0;swimlaneBody=0;fillColor=none;collapsible=0;dropTarget=0;points=[[0,0.5],[1,0.5]];portConstraint=eastwest;top=0;left=0;right=0;bottom=0;" parent="XW9KFBGHgBziSD6E--lj-269" vertex="1">
          <mxGeometry y="80" width="294" height="40" as="geometry" />
        </mxCell>
        <mxCell id="XW9KFBGHgBziSD6E--lj-274" value="FK" style="shape=partialRectangle;connectable=0;fillColor=none;top=0;left=0;bottom=0;right=0;editable=1;overflow=hidden;whiteSpace=wrap;html=1;" parent="XW9KFBGHgBziSD6E--lj-273" vertex="1">
          <mxGeometry width="30" height="40" as="geometry">
            <mxRectangle width="30" height="40" as="alternateBounds" />
          </mxGeometry>
        </mxCell>
        <mxCell id="XW9KFBGHgBziSD6E--lj-275" value="memberId VARCHAR(100)" style="shape=partialRectangle;connectable=0;fillColor=none;top=0;left=0;bottom=0;right=0;align=left;spacingLeft=6;overflow=hidden;whiteSpace=wrap;html=1;" parent="XW9KFBGHgBziSD6E--lj-273" vertex="1">
          <mxGeometry x="30" width="264" height="40" as="geometry">
            <mxRectangle width="264" height="40" as="alternateBounds" />
          </mxGeometry>
        </mxCell>
        <mxCell id="XW9KFBGHgBziSD6E--lj-276" value="" style="shape=tableRow;horizontal=0;startSize=0;swimlaneHead=0;swimlaneBody=0;fillColor=none;collapsible=0;dropTarget=0;points=[[0,0.5],[1,0.5]];portConstraint=eastwest;top=0;left=0;right=0;bottom=0;" parent="XW9KFBGHgBziSD6E--lj-269" vertex="1">
          <mxGeometry y="120" width="294" height="30" as="geometry" />
        </mxCell>
        <mxCell id="XW9KFBGHgBziSD6E--lj-277" value="FK" style="shape=partialRectangle;connectable=0;fillColor=none;top=0;left=0;bottom=0;right=0;editable=1;overflow=hidden;whiteSpace=wrap;html=1;" parent="XW9KFBGHgBziSD6E--lj-276" vertex="1">
          <mxGeometry width="30" height="30" as="geometry">
            <mxRectangle width="30" height="30" as="alternateBounds" />
          </mxGeometry>
        </mxCell>
        <mxCell id="XW9KFBGHgBziSD6E--lj-278" value="resourceId VARCHAR(100)" style="shape=partialRectangle;connectable=0;fillColor=none;top=0;left=0;bottom=0;right=0;align=left;spacingLeft=6;overflow=hidden;whiteSpace=wrap;html=1;" parent="XW9KFBGHgBziSD6E--lj-276" vertex="1">
          <mxGeometry x="30" width="264" height="30" as="geometry">
            <mxRectangle width="264" height="30" as="alternateBounds" />
          </mxGeometry>
        </mxCell>
        <mxCell id="XW9KFBGHgBziSD6E--lj-279" value="" style="shape=tableRow;horizontal=0;startSize=0;swimlaneHead=0;swimlaneBody=0;fillColor=none;collapsible=0;dropTarget=0;points=[[0,0.5],[1,0.5]];portConstraint=eastwest;top=0;left=0;right=0;bottom=0;" parent="XW9KFBGHgBziSD6E--lj-269" vertex="1">
          <mxGeometry y="150" width="294" height="40" as="geometry" />
        </mxCell>
        <mxCell id="XW9KFBGHgBziSD6E--lj-280" value="" style="shape=partialRectangle;connectable=0;fillColor=none;top=0;left=0;bottom=0;right=0;editable=1;overflow=hidden;whiteSpace=wrap;html=1;" parent="XW9KFBGHgBziSD6E--lj-279" vertex="1">
          <mxGeometry width="30" height="40" as="geometry">
            <mxRectangle width="30" height="40" as="alternateBounds" />
          </mxGeometry>
        </mxCell>
        <mxCell id="XW9KFBGHgBziSD6E--lj-281" value="reservationDate DATE" style="shape=partialRectangle;connectable=0;fillColor=none;top=0;left=0;bottom=0;right=0;align=left;spacingLeft=6;overflow=hidden;whiteSpace=wrap;html=1;" parent="XW9KFBGHgBziSD6E--lj-279" vertex="1">
          <mxGeometry x="30" width="264" height="40" as="geometry">
            <mxRectangle width="264" height="40" as="alternateBounds" />
          </mxGeometry>
        </mxCell>
        <mxCell id="XW9KFBGHgBziSD6E--lj-282" value="" style="shape=tableRow;horizontal=0;startSize=0;swimlaneHead=0;swimlaneBody=0;fillColor=none;collapsible=0;dropTarget=0;points=[[0,0.5],[1,0.5]];portConstraint=eastwest;top=0;left=0;right=0;bottom=0;" parent="1" vertex="1">
          <mxGeometry x="-710" y="390" width="180" height="30" as="geometry" />
        </mxCell>
        <mxCell id="XW9KFBGHgBziSD6E--lj-283" value="" style="shape=partialRectangle;connectable=0;fillColor=none;top=0;left=0;bottom=0;right=0;editable=1;overflow=hidden;whiteSpace=wrap;html=1;" parent="XW9KFBGHgBziSD6E--lj-282" vertex="1">
          <mxGeometry width="30" height="30" as="geometry">
            <mxRectangle width="30" height="30" as="alternateBounds" />
          </mxGeometry>
        </mxCell>
        <mxCell id="XW9KFBGHgBziSD6E--lj-284" value="" style="shape=tableRow;horizontal=0;startSize=0;swimlaneHead=0;swimlaneBody=0;fillColor=none;collapsible=0;dropTarget=0;points=[[0,0.5],[1,0.5]];portConstraint=eastwest;top=0;left=0;right=0;bottom=0;" parent="1" vertex="1">
          <mxGeometry x="-710" y="420" width="180" height="30" as="geometry" />
        </mxCell>
        <mxCell id="XW9KFBGHgBziSD6E--lj-285" value="" style="shape=partialRectangle;connectable=0;fillColor=none;top=0;left=0;bottom=0;right=0;editable=1;overflow=hidden;whiteSpace=wrap;html=1;" parent="XW9KFBGHgBziSD6E--lj-284" vertex="1">
          <mxGeometry width="30" height="30" as="geometry">
            <mxRectangle width="30" height="30" as="alternateBounds" />
          </mxGeometry>
        </mxCell>
        <mxCell id="XW9KFBGHgBziSD6E--lj-286" value="expirationDate DATE" style="shape=partialRectangle;connectable=0;fillColor=none;top=0;left=0;bottom=0;right=0;align=left;spacingLeft=6;overflow=hidden;whiteSpace=wrap;html=1;" parent="1" vertex="1">
          <mxGeometry x="-680" y="430" width="150" height="30" as="geometry">
            <mxRectangle width="150" height="30" as="alternateBounds" />
          </mxGeometry>
        </mxCell>
        <mxCell id="XW9KFBGHgBziSD6E--lj-287" value="" style="endArrow=none;html=1;rounded=0;fontFamily=Helvetica;fontSize=12;fontColor=default;fontStyle=1;exitX=0.163;exitY=0.005;exitDx=0;exitDy=0;exitPerimeter=0;" parent="1" source="XW9KFBGHgBziSD6E--lj-288" edge="1">
          <mxGeometry width="50" height="50" relative="1" as="geometry">
            <mxPoint x="-680" y="490" as="sourcePoint" />
            <mxPoint x="-680" y="390" as="targetPoint" />
          </mxGeometry>
        </mxCell>
        <mxCell id="XW9KFBGHgBziSD6E--lj-288" value="" style="shape=tableRow;horizontal=0;startSize=0;swimlaneHead=0;swimlaneBody=0;fillColor=none;collapsible=0;dropTarget=0;points=[[0,0.5],[1,0.5]];portConstraint=eastwest;top=0;left=0;right=0;bottom=0;" parent="1" vertex="1">
          <mxGeometry x="-710" y="460" width="180" height="30" as="geometry" />
        </mxCell>
        <mxCell id="XW9KFBGHgBziSD6E--lj-289" value="" style="shape=partialRectangle;connectable=0;fillColor=none;top=0;left=0;bottom=0;right=0;editable=1;overflow=hidden;whiteSpace=wrap;html=1;" parent="XW9KFBGHgBziSD6E--lj-288" vertex="1">
          <mxGeometry width="30" height="30" as="geometry">
            <mxRectangle width="30" height="30" as="alternateBounds" />
          </mxGeometry>
        </mxCell>
        <mxCell id="XW9KFBGHgBziSD6E--lj-291" value="" style="shape=tableRow;horizontal=0;startSize=0;swimlaneHead=0;swimlaneBody=0;fillColor=none;collapsible=0;dropTarget=0;points=[[0,0.5],[1,0.5]];portConstraint=eastwest;top=0;left=0;right=0;bottom=0;" parent="1" vertex="1">
          <mxGeometry x="-711" y="480" width="279" height="30" as="geometry" />
        </mxCell>
        <mxCell id="XW9KFBGHgBziSD6E--lj-292" value="" style="shape=partialRectangle;connectable=0;fillColor=none;top=0;left=0;bottom=0;right=0;editable=1;overflow=hidden;whiteSpace=wrap;html=1;" parent="XW9KFBGHgBziSD6E--lj-291" vertex="1">
          <mxGeometry width="30" height="30" as="geometry">
            <mxRectangle width="30" height="30" as="alternateBounds" />
          </mxGeometry>
        </mxCell>
        <mxCell id="XW9KFBGHgBziSD6E--lj-294" value="" style="shape=tableRow;horizontal=0;startSize=0;swimlaneHead=0;swimlaneBody=0;fillColor=none;collapsible=0;dropTarget=0;points=[[0,0.5],[1,0.5]];portConstraint=eastwest;top=0;left=0;right=0;bottom=0;" parent="1" vertex="1">
          <mxGeometry x="-717" y="510" width="289" height="30" as="geometry" />
        </mxCell>
        <mxCell id="XW9KFBGHgBziSD6E--lj-295" value="" style="shape=partialRectangle;connectable=0;fillColor=none;top=0;left=0;bottom=0;right=0;editable=1;overflow=hidden;whiteSpace=wrap;html=1;" parent="XW9KFBGHgBziSD6E--lj-294" vertex="1">
          <mxGeometry width="30" height="30" as="geometry">
            <mxRectangle width="30" height="30" as="alternateBounds" />
          </mxGeometry>
        </mxCell>
        <mxCell id="XW9KFBGHgBziSD6E--lj-297" value="" style="shape=tableRow;horizontal=0;startSize=0;swimlaneHead=0;swimlaneBody=0;fillColor=none;collapsible=0;dropTarget=0;points=[[0,0.5],[1,0.5]];portConstraint=eastwest;top=0;left=0;right=0;bottom=0;" parent="1" vertex="1">
          <mxGeometry x="-720" y="538" width="289" height="30" as="geometry" />
        </mxCell>
        <mxCell id="XW9KFBGHgBziSD6E--lj-298" value="" style="shape=partialRectangle;connectable=0;fillColor=none;top=0;left=0;bottom=0;right=0;editable=1;overflow=hidden;whiteSpace=wrap;html=1;" parent="XW9KFBGHgBziSD6E--lj-297" vertex="1">
          <mxGeometry width="30" height="30" as="geometry">
            <mxRectangle width="30" height="30" as="alternateBounds" />
          </mxGeometry>
        </mxCell>
        <mxCell id="XW9KFBGHgBziSD6E--lj-300" value="" style="shape=tableRow;horizontal=0;startSize=0;swimlaneHead=0;swimlaneBody=0;fillColor=none;collapsible=0;dropTarget=0;points=[[0,0.5],[1,0.5]];portConstraint=eastwest;top=0;left=0;right=0;bottom=0;" parent="1" vertex="1">
          <mxGeometry x="-718" y="560" width="294" height="40" as="geometry" />
        </mxCell>
        <mxCell id="XW9KFBGHgBziSD6E--lj-301" value="" style="shape=partialRectangle;connectable=0;fillColor=none;top=0;left=0;bottom=0;right=0;editable=1;overflow=hidden;whiteSpace=wrap;html=1;" parent="XW9KFBGHgBziSD6E--lj-300" vertex="1">
          <mxGeometry width="30" height="40" as="geometry">
            <mxRectangle width="30" height="40" as="alternateBounds" />
          </mxGeometry>
        </mxCell>
        <mxCell id="XW9KFBGHgBziSD6E--lj-303" value="" style="edgeStyle=entityRelationEdgeStyle;fontSize=12;html=1;endArrow=ERmandOne;startArrow=ERmandOne;rounded=0;fontFamily=Helvetica;fontColor=default;fontStyle=1;exitX=1;exitY=0.5;exitDx=0;exitDy=0;entryX=0;entryY=0.5;entryDx=0;entryDy=0;" parent="1" source="XW9KFBGHgBziSD6E--lj-241" target="XW9KFBGHgBziSD6E--lj-209" edge="1">
          <mxGeometry width="100" height="100" relative="1" as="geometry">
            <mxPoint x="-430" y="-10" as="sourcePoint" />
            <mxPoint x="-150" y="140" as="targetPoint" />
          </mxGeometry>
        </mxCell>
        <mxCell id="XW9KFBGHgBziSD6E--lj-305" value="" style="edgeStyle=entityRelationEdgeStyle;fontSize=12;html=1;endArrow=ERoneToMany;rounded=0;fontFamily=Helvetica;fontColor=default;fontStyle=1;exitX=1;exitY=0.5;exitDx=0;exitDy=0;entryX=0;entryY=0.5;entryDx=0;entryDy=0;" parent="1" source="XW9KFBGHgBziSD6E--lj-273" target="XW9KFBGHgBziSD6E--lj-107" edge="1">
          <mxGeometry width="100" height="100" relative="1" as="geometry">
            <mxPoint x="-320" y="320" as="sourcePoint" />
            <mxPoint x="-220" y="220" as="targetPoint" />
          </mxGeometry>
        </mxCell>
        <mxCell id="XW9KFBGHgBziSD6E--lj-306" value="" style="edgeStyle=entityRelationEdgeStyle;fontSize=12;html=1;endArrow=ERoneToMany;rounded=0;fontFamily=Helvetica;fontColor=default;fontStyle=1;exitX=1;exitY=0.5;exitDx=0;exitDy=0;entryX=0;entryY=0.5;entryDx=0;entryDy=0;" parent="1" source="XW9KFBGHgBziSD6E--lj-276" target="XW9KFBGHgBziSD6E--lj-203" edge="1">
          <mxGeometry width="100" height="100" relative="1" as="geometry">
            <mxPoint x="-250" y="290" as="sourcePoint" />
            <mxPoint x="-150" y="190" as="targetPoint" />
          </mxGeometry>
        </mxCell>
        <mxCell id="IA6GWEvzyQWMdpZQW4wW-3" value="floorNumber" style="ellipse;whiteSpace=wrap;html=1;" parent="1" vertex="1">
          <mxGeometry x="770" y="1220" width="90" height="50" as="geometry" />
        </mxCell>
        <mxCell id="IA6GWEvzyQWMdpZQW4wW-4" value="shelfNumber" style="ellipse;whiteSpace=wrap;html=1;" parent="1" vertex="1">
          <mxGeometry x="610" y="1200" width="90" height="50" as="geometry" />
        </mxCell>
        <mxCell id="IA6GWEvzyQWMdpZQW4wW-5" value="" style="endArrow=none;html=1;rounded=0;entryX=0.5;entryY=0;entryDx=0;entryDy=0;exitX=0.5;exitY=1;exitDx=0;exitDy=0;" parent="1" source="XW9KFBGHgBziSD6E--lj-26" target="IA6GWEvzyQWMdpZQW4wW-3" edge="1">
          <mxGeometry width="50" height="50" relative="1" as="geometry">
            <mxPoint x="790" y="1110" as="sourcePoint" />
            <mxPoint x="755" y="1170" as="targetPoint" />
          </mxGeometry>
        </mxCell>
        <mxCell id="IA6GWEvzyQWMdpZQW4wW-6" value="" style="endArrow=none;html=1;rounded=0;entryX=0.5;entryY=0;entryDx=0;entryDy=0;exitX=0.5;exitY=1;exitDx=0;exitDy=0;" parent="1" source="XW9KFBGHgBziSD6E--lj-26" target="IA6GWEvzyQWMdpZQW4wW-4" edge="1">
          <mxGeometry width="50" height="50" relative="1" as="geometry">
            <mxPoint x="790" y="1110" as="sourcePoint" />
            <mxPoint x="825" y="1230" as="targetPoint" />
          </mxGeometry>
        </mxCell>
        <mxCell id="XW9KFBGHgBziSD6E--lj-228" value="FK" style="shape=partialRectangle;connectable=0;fillColor=none;top=0;left=0;bottom=0;right=0;editable=1;overflow=hidden;whiteSpace=wrap;html=1;" parent="1" vertex="1">
          <mxGeometry x="-275" y="20" width="30" height="30" as="geometry">
            <mxRectangle width="30" height="30" as="alternateBounds" />
          </mxGeometry>
        </mxCell>
        <mxCell id="XW9KFBGHgBziSD6E--lj-229" value="classNumber VARCHAR(20)" style="shape=partialRectangle;connectable=0;fillColor=none;top=0;left=0;bottom=0;right=0;align=left;spacingLeft=6;overflow=hidden;whiteSpace=wrap;html=1;" parent="1" vertex="1">
          <mxGeometry x="-246" y="20" width="249" height="30" as="geometry">
            <mxRectangle width="249" height="30" as="alternateBounds" />
          </mxGeometry>
        </mxCell>
        <mxCell id="XW9KFBGHgBziSD6E--lj-232" value="resourceTitle VARCHAR(100)" style="shape=partialRectangle;connectable=0;fillColor=none;top=0;left=0;bottom=0;right=0;align=left;spacingLeft=6;overflow=hidden;whiteSpace=wrap;html=1;" parent="1" vertex="1">
          <mxGeometry x="-243" y="50" width="259" height="30" as="geometry">
            <mxRectangle width="259" height="30" as="alternateBounds" />
          </mxGeometry>
        </mxCell>
      </root>
    </mxGraphModel>
  </diagram>
</mxfile>
